<svg aria-hidden="true" style="position: absolute; width: 0; height: 0; overflow: hidden;" version="1.1" xmlns="http://www.w3.org/2000/svg" xmlns:xlink="http://www.w3.org/1999/xlink">
<defs>
<symbol id="icon-envelope" viewBox="0 0 43 32">
<path d="M38.667 0h-34.667c-2.213 0-4 1.787-4 4v24c0 2.213 1.787 4 4 4h34.667c2.213 0 4-1.787 4-4v-24c0-2.213-1.787-4-4-4zM38.667 2.667c0.003-0 0.007-0 0.011-0 0.189 0 0.368 0.039 0.531 0.11l-0.009-0.003-17.867 15.467-17.867-15.467c0.154-0.067 0.334-0.107 0.523-0.107 0.004 0 0.007 0 0.011 0h34.666zM38.667 29.333h-34.667c-0.736 0-1.333-0.597-1.333-1.333v0-22.4l17.787 15.413c0.234 0.206 0.542 0.332 0.88 0.332s0.646-0.126 0.881-0.333l-0.001 0.001 17.787-15.413v22.4c0 0.736-0.597 1.333-1.333 1.333v0z"></path>
</symbol>
<symbol id="icon-smartphone" viewBox="0 0 20 32">
<path  d="M17 0h-14c-1.66 0-3 1.34-3 3v26c0 1.66 1.34 3 3 3h14c1.66 0 3-1.34 3-3v-26c0-1.66-1.34-3-3-3zM3 2h14c0.56 0 1 0.44 1 1v21h-16v-21c0-0.56 0.44-1 1-1zM17 30h-14c-0.552 0-1-0.448-1-1v0-3h16v3c0 0.552-0.448 1-1 1v0z"></path>
<path d="M4.7 27.48c0.4 0.36 0.4 0.96 0 1.32-0.186 0.164-0.431 0.264-0.7 0.264s-0.514-0.1-0.701-0.265l0.001 0.001c-0.177-0.165-0.288-0.399-0.288-0.66s0.111-0.495 0.288-0.659l0.001-0.001c0.4-0.36 1-0.36 1.4 0z"></path>
</symbol>
<symbol id="icon-instagram" viewBox="0 0 32 32">
<path  d="M31.968 9.408c-0.024-1.403-0.292-2.735-0.763-3.968l0.027 0.080c-0.427-1.109-1.058-2.054-1.854-2.83l-0.002-0.002c-0.8-0.8-1.76-1.44-2.832-1.84-1.151-0.448-2.483-0.721-3.875-0.752l-0.013-0c-1.458-0.070-3.167-0.109-4.885-0.109-0.6 0-1.199 0.005-1.797 0.014l0.090-0.001c-4.352 0-4.896 0.016-6.592 0.096-1.712 0.064-2.88 0.352-3.888 0.736-1.072 0.416-2.032 1.040-2.832 1.856-0.816 0.8-1.44 1.76-1.856 2.832-0.443 1.152-0.711 2.485-0.736 3.877l-0 0.011c-0.070 1.458-0.109 3.167-0.109 4.885 0 0.6 0.005 1.199 0.014 1.797l-0.001-0.090c0 4.352 0 4.896 0.080 6.592 0.030 1.405 0.303 2.737 0.779 3.968l-0.027-0.080c0.4 1.072 1.040 2.032 1.856 2.832 0.8 0.816 1.76 1.44 2.832 1.856 1.008 0.384 2.176 0.656 3.872 0.736 1.712 0.080 2.24 0.096 6.592 0.096s4.896-0.016 6.608-0.096c1.397-0.026 2.724-0.294 3.952-0.763l-0.080 0.027c2.16-0.851 3.837-2.528 4.669-4.633l0.019-0.055c0.384-1.024 0.672-2.176 0.736-3.888 0.080-1.696 0.096-2.24 0.096-6.592 0-4.336 0-4.88-0.080-6.592zM29.088 22.48c-0.064 1.552-0.32 2.4-0.544 2.96-0.552 1.401-1.639 2.488-3.004 3.027l-0.036 0.013c-0.56 0.224-1.424 0.48-2.976 0.544-1.68 0.080-2.192 0.096-6.464 0.096-0.465 0.007-1.013 0.011-1.562 0.011-1.724 0-3.439-0.039-5.144-0.116l0.242 0.009c-1.568-0.064-2.4-0.32-2.96-0.544-0.722-0.271-1.337-0.68-1.839-1.199l-0.001-0.001c-0.518-0.5-0.926-1.108-1.189-1.79l-0.011-0.034c-0.336-0.884-0.535-1.905-0.544-2.972l-0-0.004c-0.068-1.463-0.107-3.179-0.107-4.903 0-0.549 0.004-1.097 0.012-1.643l-0.001 0.083c0-4.272 0.016-4.784 0.096-6.464 0.064-1.568 0.32-2.4 0.544-2.976 0.256-0.688 0.656-1.312 1.2-1.824 0.504-0.519 1.118-0.928 1.806-1.189l0.034-0.011c0.56-0.224 1.408-0.48 2.976-0.544 1.68-0.080 2.192-0.096 6.448-0.096 4.288 0 4.8 0 6.464 0.096 1.568 0.064 2.4 0.32 2.976 0.544 0.688 0.256 1.328 0.656 1.84 1.2 0.528 0.512 0.944 1.136 1.2 1.824 0.208 0.576 0.48 1.424 0.544 2.976 0.080 1.68 0.096 2.192 0.096 6.464s-0.016 4.768-0.096 6.464z"></path>
<path d="M16.064 7.776c-4.542 0-8.224 3.682-8.224 8.224s3.682 8.224 8.224 8.224v0c4.542 0 8.224-3.682 8.224-8.224s-3.682-8.224-8.224-8.224v0zM16.064 21.328c-2.943 0-5.328-2.385-5.328-5.328s2.385-5.328 5.328-5.328v0c2.943 0 5.328 2.385 5.328 5.328s-2.385 5.328-5.328 5.328v0zM26.528 7.456c0 1.060-0.86 1.92-1.92 1.92s-1.92-0.86-1.92-1.92v0c0-1.060 0.86-1.92 1.92-1.92s1.92 0.86 1.92 1.92v0z"></path>
</symbol>
<symbol id="icon-twitter" viewBox="0 0 32 32">
<path d="M32 6.080c-1.184 0.528-2.464 0.864-3.776 1.040 1.36-0.816 2.4-2.080 2.88-3.632-1.28 0.752-2.672 1.28-4.16 1.6-1.202-1.298-2.915-2.107-4.817-2.107-3.623 0-6.56 2.937-6.56 6.56 0 0.538 0.065 1.060 0.187 1.56l-0.009-0.045c-5.462-0.281-10.265-2.883-13.477-6.83l-0.027-0.034c-0.558 0.949-0.887 2.089-0.887 3.307 0 2.26 1.134 4.255 2.865 5.446l0.022 0.014c-1.040 0-2.080-0.32-2.96-0.8v0.064c0 3.2 2.272 5.84 5.264 6.448-0.518 0.147-1.113 0.232-1.728 0.232-0.442 0-0.873-0.044-1.29-0.127l0.042 0.007c0.878 2.623 3.284 4.493 6.136 4.56l0.008 0c-2.221 1.763-5.066 2.828-8.159 2.828-0.547 0-1.087-0.033-1.617-0.098l0.064 0.006c2.826 1.846 6.286 2.944 10.003 2.944 0.022 0 0.043-0 0.065-0h-0.003c12.080 0 18.672-10 18.672-18.672 0-0.288 0-0.576-0.032-0.848 1.312-0.928 2.4-2.080 3.296-3.408z"></path>
</symbol>
<symbol id="icon-facebook" viewBox="0 0 18 32">
<path d="M13.328 5.312h2.928v-5.088c-0.512-0.064-2.24-0.224-4.256-0.224-4.224 0-7.104 2.656-7.104 7.52v4.48h-4.64v5.68h4.64v14.32h5.696v-14.304h4.464l0.704-5.696h-5.168v-3.92c0-1.648 0.448-2.768 2.736-2.768z"></path>
</symbol>
<symbol id="icon-linkedin" viewBox="0 0 32 32">
<path d="M32 32v-11.744c0-5.728-1.232-10.16-7.952-10.16-0.076-0.003-0.166-0.005-0.256-0.005-2.555 0-4.788 1.376-5.999 3.428l-0.018 0.032h-0.096v-2.912h-6.368v21.36h6.64v-10.576c0-2.784 0.528-5.488 3.968-5.488 3.408 0 3.456 3.184 3.456 5.664v10.4h6.624zM0.528 10.64h6.64v21.36h-6.64v-21.36zM3.84 0c-2.121 0-3.84 1.719-3.84 3.84v0c-0 0.005-0 0.010-0 0.016 0 2.127 1.715 3.854 3.838 3.872h0.002c2.128 0 3.84-1.76 3.84-3.888 0-2.121-1.719-3.84-3.84-3.84v0z"></path>
</symbol>
<symbol id="icon-ya-co" viewBox="0 0 28 32">
<path  d="M4.085 0l4.766 4.514h-8.851v21.903h23.149v-8.374l4.766 4.507v-22.55h-23.83zM22.945 17.518l-13.542-12.807h13.542v12.8zM18.737 23.224h-15.074v-14.74h1.069v13.74h14.005v1.001zM7.224 29.345l-0.558 1.144-0.558-1.144h-0.456l0.817 1.532v0.885h0.415v-0.885l0.817-1.532h-0.477zM7.925 31.762l0.191-0.558h0.94l0.204 0.558h0.436l-0.919-2.417h-0.374l-0.919 2.417h0.443zM8.586 29.855l0.354 1.008h-0.701l0.347-1.008zM10.805 30.808c-0.055 0.084-0.088 0.187-0.088 0.298 0 0.001 0 0.001 0 0.002v-0c0 0.204 0.068 0.374 0.211 0.497 0.143 0.129 0.34 0.191 0.579 0.191s0.443-0.068 0.613-0.191l0.136 0.157h0.477l-0.361-0.415c0.136-0.191 0.204-0.436 0.204-0.735h-0.34c0 0.163-0.041 0.313-0.109 0.443l-0.463-0.545 0.163-0.129c0.116-0.082 0.204-0.163 0.252-0.252 0.047-0.078 0.074-0.171 0.074-0.271 0-0.154-0.065-0.292-0.169-0.389l-0-0c-0.108-0.097-0.252-0.157-0.409-0.157-0.007 0-0.014 0-0.020 0l0.001-0c-0.012-0.001-0.025-0.001-0.039-0.001-0.166 0-0.317 0.062-0.432 0.165l0.001-0.001c-0.106 0.107-0.171 0.254-0.171 0.416 0 0.012 0 0.023 0.001 0.034l-0-0.002c0 0.082 0.020 0.163 0.054 0.245s0.102 0.184 0.197 0.3c-0.141 0.094-0.26 0.207-0.358 0.337l-0.003 0.004zM11.894 31.34c-0.103 0.084-0.236 0.135-0.381 0.136h-0c-0.006 0-0.013 0.001-0.020 0.001-0.102 0-0.196-0.039-0.266-0.103l0 0c-0.067-0.066-0.109-0.157-0.109-0.259 0-0.005 0-0.010 0-0.014l-0 0.001c0-0.136 0.068-0.245 0.204-0.347l0.048-0.041 0.524 0.626zM11.466 30.264c-0.116-0.136-0.17-0.252-0.17-0.347 0-0.082 0.020-0.15 0.068-0.204 0.044-0.046 0.105-0.075 0.174-0.075 0.004 0 0.007 0 0.011 0l-0.001-0c0.075 0 0.136 0.020 0.184 0.068 0.048 0.041 0.068 0.095 0.068 0.157 0 0.095-0.034 0.177-0.102 0.238l-0.048 0.041-0.184 0.123zM15.401 31.585c0.17-0.15 0.266-0.347 0.286-0.613h-0.415c-0.020 0.177-0.075 0.3-0.157 0.374-0.088 0.075-0.204 0.109-0.374 0.109-0.006 0-0.013 0-0.021 0-0.16 0-0.302-0.080-0.387-0.203l-0.001-0.002c-0.095-0.136-0.143-0.34-0.143-0.599v-0.211c0-0.259 0.048-0.456 0.15-0.586 0.095-0.136 0.238-0.204 0.422-0.204 0.157 0 0.272 0.041 0.354 0.116s0.136 0.204 0.157 0.374h0.415c-0.012-0.242-0.117-0.457-0.279-0.612l-0-0c-0.161-0.136-0.371-0.219-0.601-0.219-0.016 0-0.032 0-0.049 0.001l0.002-0c-0.204 0-0.374 0.048-0.524 0.136-0.15 0.102-0.272 0.232-0.347 0.409-0.082 0.17-0.123 0.374-0.123 0.599v0.232c0 0.218 0.041 0.415 0.123 0.586s0.191 0.3 0.34 0.388c0.15 0.095 0.32 0.136 0.511 0.136 0.272 0 0.497-0.068 0.66-0.211zM17.872 31.244c0.082-0.184 0.123-0.388 0.123-0.626v-0.136c0-0.238-0.041-0.443-0.123-0.613-0.146-0.332-0.471-0.559-0.85-0.559-0.012 0-0.025 0-0.037 0.001l0.002-0c-0.191 0-0.368 0.048-0.517 0.143-0.157 0.095-0.272 0.238-0.354 0.415-0.082 0.184-0.129 0.388-0.129 0.626v0.136c0 0.232 0.048 0.436 0.129 0.613s0.204 0.313 0.354 0.409c0.157 0.095 0.334 0.143 0.524 0.143 0.204 0 0.374-0.048 0.531-0.136 0.15-0.102 0.272-0.238 0.347-0.415zM17.423 29.876c0.102 0.136 0.157 0.347 0.157 0.613v0.129c0 0.272-0.054 0.477-0.157 0.62-0.090 0.129-0.237 0.212-0.403 0.212-0.009 0-0.018-0-0.027-0.001l0.001 0c-0.006 0-0.012 0-0.019 0-0.169 0-0.318-0.083-0.409-0.21l-0.001-0.002c-0.099-0.158-0.159-0.35-0.159-0.556 0-0.022 0.001-0.044 0.002-0.066l-0 0.003v-0.136c0-0.266 0.054-0.463 0.157-0.613 0.091-0.125 0.237-0.205 0.402-0.205 0.009 0 0.019 0 0.028 0.001l-0.001-0c0.184 0 0.327 0.068 0.429 0.204z"></path>
</symbol>
<symbol id="icon-tagline-here" viewBox="0 0 25 32">
<path  d="M10.529 1.803h-0.080l-0.388-0.012h-0.283c-0.018-0-0.039-0-0.060-0-0.26 0-0.519 0.007-0.776 0.020l0.036-0.002c-2.24 0.123-4.431 0.689-6.468 1.649l-0.265 0.129v13.625l0.622-0.209c1.995-0.718 4.297-1.147 6.695-1.175l0.013-0v1.791l-0.652 0.018h-0.049c-3.103 0.172-5.971 1.029-8.503 2.421l0.103-0.052v-17.483c1.38-0.817 2.977-1.482 4.667-1.911l0.127-0.027c1.352-0.364 2.905-0.577 4.506-0.585l0.005-0h0.265c1.123 0.004 2.21 0.149 3.247 0.42l-0.090-0.020v1.766c-0.627-0.155-1.371-0.273-2.132-0.33l-0.046-0.003h-0.043c-0.154-0.012-0.308-0.031-0.449-0.031zM13.631 3.606c0.348 0.022 0.754 0.035 1.163 0.035 1.701 0 3.351-0.219 4.922-0.631l-0.135 0.030c1.734-0.442 3.254-1.051 4.667-1.829l-0.101 0.051v17.163c-1.38 0.82-2.976 1.489-4.667 1.923l-0.127 0.028c-1.477 0.375-2.991 0.572-4.511 0.578-0.031 0-0.068 0-0.105 0-1.18 0-2.325-0.148-3.419-0.427l0.095 0.021v-17.274c0.639 0.156 1.396 0.274 2.17 0.33l0.046 0.003zM22.369 3.742l-0.622 0.209c-2.067 0.744-4.451 1.174-6.936 1.174-0.389 0-0.776-0.011-1.16-0.031l0.054 0.002-0.505-0.031v14.012l0.431 0.037c0.356 0.027 0.771 0.043 1.19 0.043 1.458 0 2.871-0.189 4.217-0.542l-0.115 0.026c1.218-0.313 2.275-0.707 3.277-1.195l-0.101 0.045 0.271-0.123v-13.625z"></path>
<path  d="M1.686 25.975c-0.168-0.171-0.401-0.278-0.66-0.278-0.012 0-0.025 0-0.037 0.001l0.002-0c-0.135 0-0.271 0.025-0.4 0.074-0.346 0.139-0.586 0.471-0.586 0.859 0 0.016 0 0.032 0.001 0.048l-0-0.002v2.338c0 0.16 0.025 0.326 0.092 0.474 0.062 0.123 0.135 0.228 0.234 0.314 0.092 0.080 0.203 0.135 0.32 0.166s0.234 0.049 0.351 0.049c0.536-0.010 0.966-0.447 0.966-0.984 0-0 0-0 0-0v0-0.258h-0.615v0.203c0.006 0.074 0 0.148-0.031 0.209-0.020 0.053-0.049 0.098-0.086 0.135v0c-0.069 0.053-0.157 0.085-0.252 0.086h-0c-0.012 0.002-0.027 0.003-0.041 0.003-0.102 0-0.192-0.049-0.248-0.125l-0.001-0.001c-0.054-0.084-0.086-0.187-0.086-0.297 0-0.006 0-0.012 0-0.018l-0 0.001v-2.178c0-0.123 0.025-0.24 0.080-0.345 0.055-0.087 0.151-0.144 0.26-0.144 0.012 0 0.025 0.001 0.037 0.002l-0.001-0c0.003-0 0.007-0 0.011-0 0.106 0 0.2 0.050 0.26 0.129l0.001 0.001c0.065 0.083 0.105 0.189 0.105 0.303 0 0.002 0 0.003-0 0.004v-0 0.209h0.603v-0.24c0-0.002 0-0.005 0-0.008 0-0.281-0.105-0.537-0.278-0.732l0.001 0.001zM5.311 25.951c-0.187-0.157-0.431-0.252-0.697-0.252-0.129 0-0.254 0.023-0.369 0.064l0.008-0.002c-0.123 0.043-0.228 0.105-0.32 0.185-0.105 0.098-0.185 0.209-0.24 0.332-0.062 0.142-0.092 0.295-0.086 0.455v2.234c-0.006 0.16 0.025 0.314 0.086 0.462 0.055 0.123 0.135 0.228 0.24 0.308 0.092 0.092 0.197 0.16 0.32 0.203 0.108 0.040 0.233 0.063 0.363 0.063s0.255-0.023 0.37-0.066l-0.007 0.002c0.38-0.131 0.648-0.486 0.648-0.904 0-0.022-0.001-0.044-0.002-0.066l0 0.003v-2.24c0.001-0.013 0.001-0.028 0.001-0.043 0-0.291-0.123-0.553-0.32-0.738l-0.001-0.001zM5.028 28.966c0.001 0.011 0.002 0.023 0.002 0.036 0 0.114-0.048 0.217-0.125 0.29l-0 0c-0.077 0.064-0.177 0.103-0.286 0.103s-0.209-0.039-0.287-0.104l0.001 0.001c-0.077-0.073-0.125-0.176-0.125-0.29 0-0.013 0.001-0.025 0.002-0.038l-0 0.002v-2.234c-0.001-0.011-0.002-0.023-0.002-0.036 0-0.114 0.048-0.217 0.125-0.29l0-0c0.077-0.064 0.177-0.103 0.286-0.103s0.209 0.039 0.287 0.104l-0.001-0.001c0.077 0.073 0.125 0.176 0.125 0.29 0 0.013-0.001 0.025-0.002 0.038l0-0.002v2.234zM10.074 29.969v-4.246h-0.591l-0.769 2.246h-0.012l-0.775-2.246h-0.578v4.24h0.603v-2.585h0.012l0.591 1.828h0.308l0.597-1.822h0.006v2.578h0.609zM13.514 26.031c-0.092-0.111-0.209-0.185-0.345-0.234-0.126-0.043-0.27-0.068-0.421-0.068-0.006 0-0.011 0-0.017 0h-0.898v4.24h0.603v-1.662h0.308c0.191 0.012 0.375-0.025 0.548-0.111 0.244-0.153 0.417-0.4 0.467-0.689l0.001-0.006c0.024-0.143 0.037-0.307 0.037-0.474 0-0.216-0.023-0.426-0.066-0.629l0.004 0.020c-0.042-0.154-0.119-0.287-0.222-0.394l0 0zM13.206 27.323c-0.006 0.074-0.025 0.148-0.062 0.215-0.037 0.062-0.086 0.123-0.154 0.148-0.078 0.039-0.171 0.062-0.269 0.062-0.005 0-0.010-0-0.015-0h-0.276v-1.446h0.308c0.098 0 0.185 0.012 0.277 0.055 0.062 0.031 0.111 0.086 0.142 0.154 0.030 0.069 0.048 0.149 0.049 0.233v0.579zM16.369 25.729h-0.492l-0.923 4.24h0.603l0.178-0.911h0.818l0.185 0.911h0.597l-0.954-4.24zM15.815 28.48l0.302-1.538h0.006l0.295 1.538h-0.603zM20.277 28.283h-0.012l-0.911-2.554h-0.578v4.24h0.603v-2.548h0.012l0.917 2.548h0.566v-4.246h-0.603v2.554zM23.969 25.729l-0.492 1.686h-0.006l-0.492-1.686h-0.634l0.831 2.449v1.785h0.603v-1.785l0.831-2.449h-0.64zM0 31.163h0.289v0.818h0.203v-0.818h0.289v-0.166h-0.782v0.166zM2.449 30.997l-0.382 0.985h0.209l0.080-0.222h0.394l0.080 0.222h0.215l-0.388-0.985h-0.209zM2.418 31.594l0.129-0.369 0.135 0.369h-0.265zM4.862 31.618h0.234v0.123c-0.063 0.052-0.145 0.085-0.234 0.086h-0c-0.005 0-0.011 0.001-0.017 0.001-0.078 0-0.147-0.036-0.192-0.092l-0-0c-0.047-0.066-0.074-0.148-0.074-0.236 0-0.008 0-0.016 0.001-0.023l-0 0.001c0-0.215 0.092-0.326 0.283-0.326 0.006-0.001 0.013-0.001 0.020-0.001 0.096 0 0.177 0.065 0.202 0.153l0 0.001 0.197-0.037c-0.043-0.191-0.185-0.289-0.418-0.289-0.006-0-0.012-0-0.019-0-0.125 0-0.24 0.047-0.327 0.124l0-0c-0.088 0.087-0.143 0.208-0.143 0.342 0 0.014 0.001 0.028 0.002 0.041l-0-0.002c0 0.135 0.037 0.271 0.123 0.369 0.088 0.092 0.211 0.149 0.347 0.149 0.010 0 0.020-0 0.030-0.001l-0.001 0c0.154 0 0.308-0.055 0.418-0.16v-0.388h-0.431v0.166zM7.335 30.997h-0.197v0.985h0.689v-0.166h-0.492v-0.818zM9.428 30.997h-0.203v0.985h0.203v-0.985zM11.471 31.655l-0.406-0.658h-0.191v0.985h0.185v-0.64l0.394 0.64h0.197v-0.985h-0.185v0.658zM13.317 31.551h0.492v-0.166h-0.492v-0.222h0.523v-0.166h-0.726v0.985h0.751v-0.166h-0.554v-0.265zM17.791 31.385h-0.388v-0.388h-0.197v0.985h0.197v-0.431h0.388v0.431h0.197v-0.985h-0.197v0.388zM19.649 31.551h0.492v-0.166h-0.492v-0.222h0.529v-0.166h-0.726v0.985h0.745v-0.166h-0.548v-0.265zM22.166 31.551c0.172-0.031 0.258-0.123 0.258-0.277 0.001-0.008 0.002-0.018 0.002-0.028 0-0.076-0.037-0.144-0.093-0.187l-0.001-0c-0.074-0.039-0.162-0.063-0.256-0.063-0.012 0-0.023 0-0.035 0.001l0.002-0h-0.418v0.985h0.197v-0.412h0.037c0.043 0 0.086 0.006 0.123 0.025 0.031 0.018 0.062 0.043 0.074 0.074l0.215 0.308h0.234l-0.123-0.185c-0.049-0.098-0.123-0.185-0.215-0.246zM21.969 31.415h-0.148v-0.246h0.154c0.068-0.006 0.142 0 0.203 0.018 0.031 0.023 0.051 0.059 0.051 0.099 0 0.043-0.022 0.081-0.056 0.103l-0 0c-0.050 0.016-0.108 0.026-0.168 0.026-0.012 0-0.025-0-0.037-0.001l0.002 0zM24.068 31.551h0.492v-0.166h-0.492v-0.222h0.529v-0.166h-0.726v0.985h0.745v-0.166h-0.548v-0.265z"></path>
</symbol>
<symbol id="icon-foster-peters" viewBox="0 0 65 32">
<path stroke: var(--color4, #000)" stroke="#000" stroke-linejoin="miter" stroke-linecap="butt" stroke-miterlimit="4" stroke-width="0.7619" d="M10.011 10.362c1.669 0 2.933 1.189 2.933 2.56s-1.265 2.56-2.926 2.56c-1.669 0-2.933-1.181-2.933-2.56 0-1.371 1.265-2.56 2.926-2.56zM16.053 20.998l-0.389 0.053v-12.008c0-2.133 0.96-4.198 2.682-5.73 1.722-1.524 4.061-2.392 6.514-2.4 2.453 0 4.792 0.876 6.514 2.4 1.62 1.396 2.648 3.44 2.682 5.724l0 0.006c0 2.507-1.143 4.503-2.872 6.11-1.752 1.615-4.091 2.819-6.461 3.703-2.5 0.952-5.426 1.701-8.458 2.117l-0.212 0.024zM8.785 25.562c0-0.396-0.13-0.77-0.366-1.090-0.244-0.317-0.569-0.559-0.945-0.696l-0.015-0.005c-0.234-0.086-0.503-0.136-0.785-0.136-0.573 0-1.098 0.207-1.504 0.55l0.003-0.003c-0.305 0.267-0.51 0.61-0.594 0.99s-0.038 0.785 0.13 1.143c0.16 0.358 0.442 0.655 0.792 0.861 0.236 0.145 0.503 0.236 0.777 0.282v0.038h0.381c0.571-0.001 1.093-0.208 1.497-0.551l-0.003 0.003c0.198-0.183 0.358-0.396 0.472-0.632 0.107-0.236 0.168-0.495 0.16-0.762zM8.785 25.562v0zM12.808 17.356l0.137-0.015v8.221c0 1.448-0.655 2.857-1.829 3.901-1.175 1.018-2.719 1.638-4.408 1.638-0.017 0-0.034-0-0.051-0h0.003c-1.676 0-3.276-0.594-4.45-1.638-1.103-0.95-1.805-2.341-1.829-3.897l-0-0.004c0-1.707 0.762-3.063 1.958-4.168 1.258-1.085 2.74-1.952 4.361-2.523l0.096-0.029c1.733-0.66 3.762-1.18 5.864-1.469l0.147-0.017z"></path>
<path  d="M20.13 26.255h-1.288v1.333h-0.67v-3.253h2.118v0.541h-1.448v0.838h1.288v0.541zM23.345 26.034c0 0.32-0.053 0.602-0.168 0.838-0.202 0.453-0.648 0.763-1.166 0.763-0.016 0-0.032-0-0.048-0.001l0.002 0c-0.014 0-0.029 0.001-0.045 0.001-0.517 0-0.962-0.302-1.17-0.74l-0.003-0.008c-0.106-0.231-0.168-0.5-0.168-0.785 0-0.019 0-0.038 0.001-0.056l-0 0.003v-0.145c0-0.328 0.053-0.61 0.168-0.846 0.208-0.453 0.658-0.762 1.181-0.762 0.014 0 0.027 0 0.040 0.001l-0.002-0c0.267 0 0.51 0.069 0.716 0.198 0.213 0.13 0.381 0.32 0.488 0.564 0.122 0.236 0.175 0.518 0.175 0.838v0.152zM22.667 25.882c0-0.335-0.061-0.594-0.183-0.77-0.108-0.162-0.29-0.267-0.496-0.267-0.008 0-0.015 0-0.023 0l0.001-0c-0.229 0-0.404 0.084-0.526 0.259s-0.183 0.434-0.183 0.77v0.16c0 0.335 0.061 0.587 0.183 0.77s0.305 0.274 0.533 0.274c0.221 0 0.389-0.084 0.51-0.259s0.183-0.434 0.183-0.77v-0.16zM25.516 26.735c0-0.13-0.046-0.229-0.13-0.29-0.14-0.091-0.302-0.164-0.476-0.211l-0.012-0.003c-0.229-0.076-0.411-0.152-0.549-0.229-0.366-0.198-0.556-0.465-0.556-0.8 0-0.183 0.053-0.335 0.152-0.472s0.236-0.244 0.427-0.328c0.183-0.076 0.389-0.114 0.625-0.114 0.229 0 0.434 0.046 0.617 0.13 0.183 0.076 0.32 0.198 0.427 0.358 0.099 0.152 0.152 0.328 0.152 0.518h-0.67c0-0.152-0.053-0.267-0.145-0.343-0.098-0.081-0.225-0.13-0.363-0.13-0.012 0-0.023 0-0.034 0.001l0.002-0c-0.010-0.001-0.023-0.001-0.035-0.001-0.129 0-0.249 0.040-0.348 0.109l0.002-0.001c-0.084 0.060-0.137 0.157-0.137 0.267 0 0.003 0 0.005 0 0.008v-0c0 0.107 0.053 0.19 0.16 0.267 0.107 0.069 0.267 0.137 0.472 0.198 0.381 0.114 0.655 0.259 0.838 0.427 0.168 0.168 0.251 0.381 0.251 0.632 0 0.282-0.099 0.503-0.312 0.663s-0.503 0.244-0.861 0.244c-0.006 0-0.014 0-0.021 0-0.24 0-0.469-0.050-0.675-0.142l0.011 0.004c-0.372-0.14-0.633-0.494-0.633-0.908 0-0.008 0-0.015 0-0.023l-0 0.001h0.67c0 0.358 0.221 0.533 0.648 0.533 0.152 0 0.282-0.030 0.373-0.091 0.084-0.076 0.13-0.16 0.13-0.274zM29.097 24.876h-0.998v2.712h-0.67v-2.712h-0.99v-0.533h2.651v0.533zM31.429 26.171h-1.28v0.876h1.509v0.533h-2.179v-3.246h2.171v0.541h-1.501v0.777h1.28v0.526zM33.257 26.4h-0.533v1.189h-0.678v-3.253h1.211c0.381 0 0.678 0.084 0.884 0.259 0.213 0.168 0.312 0.411 0.312 0.724 0 0.229-0.046 0.404-0.145 0.556-0.091 0.152-0.236 0.267-0.434 0.35l0.701 1.333v0.030h-0.716l-0.61-1.189zM32.724 25.851h0.533c0.168 0 0.305-0.038 0.389-0.122 0.085-0.083 0.138-0.199 0.138-0.327 0-0.011-0-0.021-0.001-0.032l0 0.001c0-0.152-0.038-0.274-0.13-0.358-0.084-0.091-0.221-0.137-0.396-0.137h-0.533v0.975zM36.777 26.438v1.143h-0.67v-3.246h1.265c0.244 0 0.457 0.046 0.648 0.137 0.183 0.084 0.328 0.213 0.427 0.381 0.099 0.16 0.152 0.35 0.152 0.556 0 0.32-0.114 0.571-0.335 0.762-0.213 0.175-0.518 0.267-0.899 0.267h-0.587zM36.777 25.905h0.594c0.175 0 0.312-0.046 0.404-0.13 0.099-0.084 0.145-0.206 0.145-0.358 0-0.005 0-0.010 0-0.015 0-0.142-0.055-0.27-0.145-0.366l0 0c-0.095-0.094-0.226-0.152-0.37-0.152-0.004 0-0.008 0-0.011 0h-0.617v1.013zM41.013 26.179h-1.288v0.869h1.509v0.533h-2.179v-3.246h2.171v0.541h-1.501v0.777h1.288v0.526zM44.122 24.884h-0.998v2.705h-0.67v-2.712h-0.983v-0.533h2.651v0.533zM46.461 26.179h-1.295v0.869h1.516v0.533h-2.187v-3.246h2.171v0.541h-1.486v0.777h1.288v0.526zM48.274 26.4h-0.533v1.189h-0.67v-3.253h1.211c0.381 0 0.686 0.084 0.891 0.259 0.206 0.168 0.305 0.411 0.305 0.724 0 0.229-0.046 0.404-0.137 0.556-0.099 0.152-0.244 0.267-0.442 0.35l0.709 1.333v0.030h-0.724l-0.61-1.189zM47.741 25.851h0.541c0.168 0 0.305-0.038 0.396-0.122 0.085-0.083 0.138-0.199 0.138-0.327 0-0.011-0-0.021-0.001-0.032l0 0.001c0-0.152-0.046-0.274-0.137-0.358-0.076-0.091-0.213-0.137-0.396-0.137h-0.533v0.975zM51.68 26.735c0-0.13-0.046-0.229-0.137-0.29-0.138-0.090-0.298-0.163-0.468-0.21l-0.012-0.003c-0.229-0.076-0.419-0.152-0.549-0.229-0.373-0.198-0.556-0.465-0.556-0.8 0-0.183 0.046-0.335 0.152-0.472 0.091-0.137 0.236-0.244 0.419-0.328 0.19-0.076 0.396-0.114 0.625-0.114s0.442 0.046 0.625 0.13c0.183 0.076 0.32 0.198 0.419 0.358 0.099 0.152 0.152 0.328 0.152 0.518h-0.67c0-0.152-0.046-0.267-0.137-0.343-0.098-0.081-0.225-0.13-0.363-0.13-0.012 0-0.023 0-0.034 0.001l0.002-0c-0.010-0.001-0.023-0.001-0.035-0.001-0.129 0-0.249 0.040-0.348 0.109l0.002-0.001c-0.084 0.060-0.137 0.157-0.137 0.267 0 0.003 0 0.005 0 0.008v-0c0 0.107 0.053 0.19 0.152 0.267 0.114 0.069 0.267 0.137 0.48 0.198 0.381 0.114 0.655 0.259 0.83 0.427s0.259 0.381 0.259 0.632c0 0.282-0.107 0.503-0.32 0.663s-0.495 0.244-0.861 0.244c-0.006 0-0.014 0-0.021 0-0.24 0-0.469-0.050-0.675-0.142l0.011 0.004c-0.372-0.14-0.633-0.494-0.633-0.908 0-0.008 0-0.015 0-0.023l-0 0.001h0.678c0 0.358 0.213 0.533 0.64 0.533 0.16 0 0.29-0.030 0.381-0.091 0.084-0.076 0.13-0.16 0.13-0.274z"></path>
<path d="M20.13 26.255v0.762h0.762v-0.762h-0.762zM18.842 26.255v-0.762h-0.762v0.762h0.762zM18.842 27.589v0.762h0.762v-0.762h-0.762zM18.171 27.589h-0.762v0.762h0.762v-0.762zM18.171 24.335v-0.762h-0.762v0.762h0.762zM20.29 24.335h0.762v-0.762h-0.762v0.762zM20.29 24.876v0.762h0.762v-0.762h-0.762zM18.842 24.876v-0.762h-0.762v0.762h0.762zM18.842 25.714h-0.762v0.762h0.762v-0.762zM20.13 25.714h0.762v-0.762h-0.762v0.762zM20.13 25.493h-1.288v1.524h1.288v-1.524zM18.080 26.255v1.333h1.524v-1.333h-1.524zM18.842 26.827h-0.67v1.524h0.67v-1.524zM18.933 27.589v-3.253h-1.524v3.253h1.524zM18.171 25.097h2.118v-1.524h-2.118v1.524zM19.528 24.335v0.541h1.524v-0.533h-1.524zM20.29 24.114h-1.448v1.524h1.448v-1.524zM18.080 24.876v0.838h1.524v-0.838h-1.524zM18.842 26.476h1.288v-1.524h-1.288v1.524zM19.368 25.714v0.541h1.524v-0.533h-1.524zM22.69 27.436v0zM20.754 26.88v0zM20.579 26.050v0zM20.747 25.051v0zM21.242 24.488v0zM22.69 24.488l-0.411 0.648h0.008l0.396-0.648zM23.17 25.051v0zM21.44 25.105v0zM21.257 25.874v0zM22.484 26.819v0zM22.667 26.050v0zM22.59 26.034c0 0.229-0.046 0.396-0.107 0.518l1.379 0.648c0.175-0.358 0.244-0.762 0.244-1.166h-1.524zM22.484 26.552c-0.043 0.096-0.111 0.173-0.196 0.227l-0.002 0.001 0.808 1.295c0.343-0.206 0.602-0.51 0.77-0.876l-1.371-0.648zM22.286 26.781c-0.076 0.053-0.175 0.091-0.32 0.091v1.524c0.404 0 0.785-0.099 1.128-0.312l-0.808-1.295zM21.966 26.872c-0.005 0-0.010 0-0.015 0-0.112 0-0.218-0.031-0.307-0.085l0.003 0.002-0.8 1.295c0.343 0.213 0.724 0.305 1.12 0.305v-1.524zM21.646 26.789c-0.090-0.057-0.161-0.137-0.204-0.233l-0.001-0.003-1.371 0.663c0.175 0.358 0.434 0.663 0.777 0.869l0.8-1.295zM21.44 26.552c-0.063-0.138-0.1-0.3-0.1-0.47 0-0.012 0-0.023 0-0.035l-0 0.002h-1.524c0 0.411 0.076 0.808 0.251 1.166l1.371-0.663zM21.341 26.050v-0.145h-1.524v0.152h1.524zM21.341 25.897c0-0.229 0.038-0.404 0.099-0.526l-1.371-0.648c-0.175 0.358-0.251 0.762-0.251 1.166h1.524zM21.44 25.379c0.041-0.101 0.11-0.184 0.196-0.243l0.002-0.001-0.8-1.295c-0.343 0.213-0.61 0.518-0.777 0.884l1.371 0.655zM21.638 25.135c0.076-0.046 0.183-0.076 0.328-0.076v-1.524c-0.404 0-0.785 0.091-1.128 0.305l0.8 1.303zM21.966 25.059c0.137 0 0.236 0.030 0.312 0.076l0.808-1.295c-0.31-0.192-0.686-0.305-1.089-0.305-0.011 0-0.022 0-0.033 0l0.002-0v1.524zM22.286 25.135c0.076 0.046 0.137 0.114 0.198 0.236l1.371-0.648c-0.171-0.37-0.438-0.671-0.769-0.879l-0.008-0.005-0.792 1.295zM22.484 25.379c0.061 0.122 0.099 0.282 0.099 0.51h1.524c0-0.411-0.076-0.808-0.244-1.173l-1.371 0.663zM22.583 25.89v0.152h1.524v-0.152h-1.524zM23.429 25.89c0-0.411-0.076-0.853-0.32-1.211l-1.25 0.869 0.023 0.069c0.015 0.053 0.023 0.152 0.023 0.274h1.524zM23.109 24.678c-0.267-0.396-0.686-0.594-1.143-0.594v1.524l-0.046-0.015c-0.024-0.012-0.044-0.027-0.061-0.046l-0-0 1.25-0.869zM21.966 24.084c-0.457 0-0.876 0.198-1.143 0.587l1.242 0.876-0.015 0.015c-0.011 0.011-0.024 0.022-0.037 0.030l-0.001 0-0.046 0.015v-1.524zM20.823 24.67c-0.206 0.318-0.329 0.707-0.329 1.125 0 0.028 0.001 0.055 0.002 0.083l-0-0.004h1.524c0-0.122 0.015-0.206 0.023-0.267l0.023-0.061-1.25-0.876zM20.495 25.874v0.16h1.524v-0.152h-1.524zM20.495 26.034c0 0.411 0.076 0.838 0.305 1.196l1.272-0.846c0-0.008-0.053-0.099-0.053-0.35h-1.524zM20.8 27.23c0.274 0.404 0.693 0.61 1.166 0.61v-1.524l0.053 0.023 0.038 0.030 0.015 0.015-1.265 0.838zM21.966 27.84c0.457 0 0.876-0.198 1.143-0.587l-1.25-0.869 0.015-0.015c0.013-0.012 0.028-0.022 0.045-0.030l0.001-0.001 0.046-0.023v1.524zM23.109 27.246c0.251-0.358 0.32-0.785 0.32-1.196h-1.524c0 0.122-0.008 0.206-0.023 0.267s-0.030 0.076-0.030 0.076l1.265 0.853zM23.429 26.050v-0.16h-1.524v0.152h1.524zM25.387 26.446l-0.465 0.61 0.457-0.61zM24.899 26.232v0zM24.35 26.004v0zM23.947 24.731l-0.617-0.442 0.61 0.442zM24.373 24.404v0zM25.615 24.419v0zM26.042 24.777v0zM26.194 25.295v0.762h0.762v-0.762h-0.762zM25.524 25.295h-0.762v0.762h0.762v-0.762zM25.379 24.952l-0.503 0.564v0.008l0.503-0.571zM24.602 24.93l0.457 0.61h0.008l-0.457-0.61zM24.625 25.463l-0.427 0.64 0.427-0.632zM25.097 25.669v0zM25.874 27.39v0zM24.328 27.497l-0.305 0.686v0.008l0.305-0.693zM23.855 27.116v0zM23.703 26.568v-0.762h-0.762v0.762h0.762zM24.366 26.568h0.762v-0.762h-0.762v0.762zM25.387 27.010v0zM26.278 26.735c0-0.335-0.13-0.67-0.434-0.899l-0.914 1.219c-0.058-0.044-0.105-0.1-0.136-0.165l-0.001-0.003c-0.022-0.044-0.036-0.097-0.038-0.152l-0-0.001h1.524zM25.851 25.836c-0.206-0.152-0.472-0.259-0.716-0.335l-0.465 1.448 0.213 0.084 0.038 0.015 0.93-1.211zM25.135 25.509c-0.206-0.076-0.343-0.13-0.427-0.175l-0.716 1.341c0.19 0.107 0.419 0.198 0.67 0.282l0.48-1.448zM24.716 25.333c-0.060-0.025-0.111-0.061-0.152-0.106l-0-0v-0.023h-1.524c0 0.686 0.404 1.181 0.952 1.47l0.724-1.341zM24.564 25.204c-0-0.003-0.001-0.007-0.001-0.011s0-0.008 0.001-0.012l-0 0-1.242-0.891c-0.19 0.267-0.29 0.579-0.29 0.914h1.524zM24.564 25.173s0.023-0.030 0.099-0.061l-0.587-1.41c-0.29 0.122-0.556 0.312-0.747 0.587l1.234 0.884zM24.663 25.112c0.076-0.038 0.19-0.061 0.335-0.061v-1.524c-0.32 0-0.625 0.053-0.914 0.175l0.579 1.41zM24.998 25.051c0.137 0 0.229 0.030 0.297 0.061l0.648-1.387c-0.269-0.125-0.583-0.198-0.915-0.198-0.011 0-0.021 0-0.032 0l0.002-0v1.524zM25.303 25.112c0.061 0.030 0.076 0.053 0.099 0.076l1.265-0.83c-0.182-0.275-0.433-0.492-0.728-0.628l-0.011-0.004-0.64 1.387zM25.402 25.189c0.015 0.023 0.023 0.053 0.023 0.107h1.524c0-0.335-0.084-0.655-0.274-0.945l-1.272 0.838zM26.187 24.533h-0.663v1.524h0.663v-1.524zM26.286 25.295c0-0.32-0.114-0.663-0.404-0.914l-1.006 1.143c-0.042-0.037-0.076-0.083-0.098-0.135l-0.001-0.002c-0.010-0.026-0.015-0.055-0.015-0.086 0-0.002 0-0.004 0-0.005v0h1.524zM25.89 24.381c-0.282-0.244-0.61-0.32-0.907-0.32v1.524c0.023 0 0.023 0 0 0-0.042-0.016-0.077-0.039-0.107-0.069l0 0 1.013-1.143zM24.983 24.061c-0.259 0-0.571 0.053-0.838 0.267l0.922 1.204c-0.028 0.023-0.061 0.041-0.097 0.053l-0.002 0.001h0.015v-1.524zM24.145 24.32c-0.282 0.213-0.442 0.533-0.442 0.884h1.524c0 0.046-0.008 0.114-0.046 0.183-0.029 0.061-0.071 0.112-0.121 0.152l-0.001 0.001-0.914-1.219zM23.703 25.204c0 0.411 0.229 0.716 0.495 0.899l0.853-1.265c0.044 0.033 0.079 0.073 0.106 0.12l0.001 0.002c0.046 0.076 0.076 0.16 0.076 0.244h-1.524zM24.206 26.103c0.198 0.13 0.434 0.229 0.67 0.297l0.442-1.463c-0.102-0.027-0.19-0.064-0.273-0.11l0.006 0.003-0.846 1.272zM24.876 26.4c0.328 0.099 0.472 0.198 0.518 0.244l1.067-1.097c-0.305-0.29-0.716-0.48-1.143-0.61l-0.442 1.463zM25.394 26.644c0.023 0.015 0.023 0.023 0.023 0.030l0.008 0.053h1.524c0-0.45-0.16-0.861-0.488-1.181l-1.067 1.097zM25.425 26.728v0.046l-0.015 0.008 0.914 1.219c0.419-0.312 0.625-0.762 0.625-1.272h-1.524zM25.417 26.781c-0.046 0.030-0.152 0.091-0.404 0.091v1.524c0.465 0 0.93-0.107 1.31-0.396l-0.914-1.219zM25.013 26.872c-0.152 0-0.282-0.030-0.381-0.076l-0.61 1.394c0.305 0.137 0.648 0.206 0.99 0.206v-1.524zM24.64 26.796c-0.061-0.022-0.113-0.059-0.152-0.106l-0-0.001-1.257 0.861c0.198 0.29 0.472 0.503 0.785 0.64l0.625-1.394zM24.488 26.69c-0.015-0.023-0.030-0.053-0.030-0.122h-1.524c0 0.343 0.091 0.686 0.29 0.975l1.265-0.853zM23.695 27.33h0.67v-1.524h-0.67v1.524zM23.604 26.568c0 0.335 0.107 0.709 0.434 0.99 0.305 0.244 0.67 0.305 0.975 0.305v-1.524h-0.076s0.038 0 0.076 0.046c0.053 0.038 0.084 0.084 0.107 0.13 0.015 0.046 0.008 0.069 0.008 0.053h-1.524zM25.013 27.863c0.251 0 0.549-0.046 0.815-0.236l-0.891-1.242c0.046-0.030 0.076-0.038 0.099-0.046h-0.023v1.524zM25.836 27.619c0.297-0.213 0.442-0.533 0.442-0.884h-1.524c0-0.046 0.008-0.107 0.046-0.183s0.091-0.13 0.137-0.16l0.899 1.227zM29.090 24.876v0.762h0.762v-0.762h-0.762zM28.099 24.876v-0.762h-0.762v0.762h0.762zM28.099 27.589v0.762h0.762v-0.762h-0.762zM27.429 27.589h-0.762v0.762h0.762v-0.762zM27.429 24.876h0.762v-0.762h-0.762v0.762zM26.438 24.876h-0.762v0.762h0.762v-0.762zM26.438 24.343v-0.762h-0.762v0.762h0.762zM29.090 24.343h0.762v-0.762h-0.762v0.762zM29.090 24.114h-0.99v1.524h0.99v-1.524zM27.337 24.876v2.712h1.524v-2.712h-1.524zM28.099 26.827h-0.67v1.524h0.67v-1.524zM28.19 27.589v-2.712h-1.524v2.712h1.524zM27.429 24.114h-0.99v1.524h0.99v-1.524zM27.2 24.876v-0.533h-1.524v0.533h1.524zM26.438 25.105h2.651v-1.524h-2.644v1.524zM28.328 24.343v0.533h1.524v-0.533h-1.524zM31.429 26.171v0.762h0.762v-0.762h-0.762zM30.149 26.171v-0.762h-0.762v0.762h0.762zM30.149 27.048h-0.762v0.762h0.762v-0.762zM31.657 27.048h0.762v-0.762h-0.762v0.762zM31.657 27.581v0.762h0.762v-0.762h-0.762zM29.478 27.581h-0.762v0.762h0.762v-0.762zM29.478 24.335v-0.762h-0.762v0.762h0.762zM31.65 24.335h0.762v-0.762h-0.762v0.762zM31.65 24.876v0.762h0.762v-0.762h-0.762zM30.149 24.876v-0.762h-0.762v0.762h0.762zM30.149 25.653h-0.762v0.762h0.762v-0.762zM31.429 25.653h0.762v-0.762h-0.762v0.762zM31.429 25.417h-1.28v1.524h1.28v-1.524zM29.387 26.179v0.869h1.524v-0.869h-1.524zM30.149 27.81h1.509v-1.524h-1.509v1.524zM30.895 27.048v0.533h1.524v-0.533h-1.524zM31.657 26.819h-2.179v1.524h2.179v-1.524zM30.24 27.581v-3.246h-1.524v3.253h1.524zM29.478 25.097h2.171v-1.524h-2.164v1.524zM30.888 24.335v0.541h1.524v-0.533h-1.524zM31.65 24.114h-1.501v1.524h1.501v-1.524zM29.387 24.876v0.777h1.524v-0.777h-1.524zM30.149 26.415h1.28v-1.524h-1.28v1.524zM30.667 25.653v0.526h1.524v-0.526h-1.524zM33.257 26.4l0.67-0.35-0.213-0.411h-0.457v0.762zM32.724 26.4v-0.762h-0.762v0.762h0.762zM32.724 27.589v0.762h0.762v-0.762h-0.762zM32.046 27.589h-0.762v0.762h0.762v-0.762zM32.046 24.335v-0.762h-0.762v0.762h0.762zM34.309 25.874v0zM33.874 26.225l-0.305-0.686-0.747 0.328 0.381 0.716 0.67-0.358zM34.575 27.558h0.762v-0.19l-0.084-0.168-0.678 0.358zM34.575 27.589v0.762h0.762v-0.762h-0.762zM33.859 27.589l-0.678 0.343 0.213 0.419h0.465v-0.762zM32.716 25.851h-0.762v0.762h0.762v-0.762zM33.646 25.73v0zM33.653 25.013v0zM32.716 24.876v-0.762h-0.762v0.762h0.762zM33.25 25.638h-0.533v1.524h0.533v-1.524zM31.954 26.4v1.189h1.524v-1.189h-1.524zM32.716 26.827h-0.67v1.524h0.67v-1.524zM32.808 27.589v-3.253h-1.524v3.253h1.524zM32.046 25.097h1.211v-1.524h-1.211v1.524zM33.257 25.097c0.282 0 0.381 0.061 0.404 0.084l0.968-1.173c-0.353-0.272-0.801-0.436-1.287-0.436-0.030 0-0.059 0.001-0.088 0.002l0.004-0v1.524zM33.661 25.181l0.015 0.023c0 0.008 0.015 0.046 0.015 0.114h1.524c0-0.503-0.175-0.975-0.587-1.31l-0.968 1.173zM33.691 25.318c0.001 0.008 0.001 0.017 0.001 0.027 0 0.031-0.003 0.061-0.009 0.090l0.001-0.003c0 0.015-0.008 0.023-0.015 0.023l1.28 0.838c0.198-0.305 0.267-0.64 0.267-0.975h-1.524zM33.669 25.463l-0.015 0.015c-0.026 0.021-0.057 0.039-0.089 0.052l-0.003 0.001 0.625 1.387c0.305-0.13 0.571-0.335 0.762-0.632l-1.28-0.823zM33.204 26.583l0.701 1.326 1.349-0.709-0.701-1.333-1.349 0.716zM33.813 27.558v0.030h1.524v-0.030h-1.524zM34.575 26.827h-0.716v1.524h0.716v-1.524zM34.537 27.238l-0.61-1.189-1.356 0.693 0.61 1.189 1.356-0.686zM32.716 26.613h0.541v-1.524h-0.533v1.524zM33.257 26.613c0.29 0 0.632-0.076 0.907-0.328l-1.029-1.12c0.030-0.029 0.065-0.052 0.105-0.068l0.002-0.001h0.015v1.524zM34.171 26.286c0.274-0.259 0.381-0.594 0.381-0.914h-1.524l0.015-0.076c0.020-0.048 0.048-0.088 0.084-0.122l0-0 1.044 1.112zM34.552 25.371c0-0.305-0.099-0.64-0.358-0.899l-1.082 1.074c-0.033-0.034-0.059-0.074-0.075-0.12l-0.001-0.002-0.015-0.053h1.524zM34.194 24.48c-0.233-0.227-0.551-0.366-0.903-0.366-0.012 0-0.024 0-0.036 0l0.002-0v1.524c0.030 0 0.023 0 0 0-0.060-0.019-0.111-0.050-0.152-0.091v0l1.090-1.067zM33.257 24.114h-0.533v1.524h0.533v-1.524zM31.962 24.876v0.975h1.524v-0.975h-1.524zM36.777 26.438v-0.762h-0.762v0.762h0.762zM36.777 27.581v0.762h0.762v-0.762h-0.762zM36.107 27.581h-0.762v0.762h0.762v-0.762zM36.107 24.335v-0.762h-0.762v0.762h0.762zM38.011 24.472l-0.328 0.686 0.335-0.686zM38.446 24.853v0zM38.263 26.164v0zM36.777 25.905h-0.762v0.762h0.762v-0.762zM37.775 25.783v0zM37.394 24.884l0.008-0.762h-0.015v0.762zM36.777 24.884v-0.762h-0.762v0.762h0.762zM36.015 26.446v1.143h1.524v-1.143h-1.524zM36.777 26.827h-0.67v1.524h0.67v-1.524zM36.869 27.589v-3.246h-1.524v3.253h1.524zM36.107 25.105h1.265v-1.524h-1.257v1.524zM37.371 25.105c0.152 0 0.251 0.030 0.312 0.061l0.663-1.371c-0.305-0.152-0.632-0.213-0.975-0.213v1.524zM37.684 25.166c0.044 0.017 0.080 0.046 0.106 0.083l0.001 0.001 1.303-0.785c-0.175-0.305-0.434-0.526-0.747-0.67l-0.663 1.371zM37.79 25.257c0.023 0.030 0.038 0.076 0.038 0.16h1.524c0-0.335-0.076-0.663-0.259-0.952l-1.295 0.792zM37.829 25.417c0 0.122-0.030 0.152-0.053 0.175l0.983 1.166c0.411-0.35 0.602-0.823 0.602-1.341h-1.524zM37.775 25.592c-0.038 0.030-0.145 0.091-0.411 0.091v1.524c0.503 0 0.99-0.114 1.394-0.457l-0.983-1.158zM37.364 25.684h-0.587v1.524h0.587v-1.524zM36.777 26.674h0.594v-1.524h-0.594v1.524zM37.371 26.674c0.29 0 0.632-0.076 0.914-0.328l-1.021-1.128c0.031-0.033 0.069-0.058 0.112-0.075l0.002-0.001c0.023 0 0.023 0 0 0v1.524zM38.286 26.354c0.29-0.267 0.396-0.61 0.396-0.93h-1.524l0.015-0.076c0.023-0.054 0.057-0.1 0.099-0.137l0-0 1.013 1.143zM38.682 25.425c0-0.32-0.099-0.648-0.35-0.914l-1.105 1.051c-0.025-0.026-0.046-0.056-0.060-0.090l-0.001-0.002-0.008-0.046h1.524zM38.331 24.51c-0.267-0.274-0.61-0.381-0.93-0.381l-0.030 1.524-0.038-0.015c-0.042-0.018-0.078-0.044-0.106-0.076l-0-0 1.105-1.051zM37.387 24.13h-0.61v1.524h0.61v-1.524zM36.015 24.891v1.013h1.524v-1.021h-1.524zM41.013 26.187v0.762h0.762v-0.762h-0.762zM39.726 26.187v-0.762h-0.762v0.762h0.762zM39.726 27.055h-0.762v0.762h0.762v-0.762zM41.234 27.055h0.762v-0.762h-0.762v0.762zM41.234 27.589v0.762h0.762v-0.762h-0.762zM39.055 27.589h-0.762v0.762h0.762v-0.762zM39.055 24.343v-0.762h-0.762v0.762h0.762zM41.227 24.343h0.762v-0.762h-0.762v0.762zM41.227 24.884v0.762h0.762v-0.762h-0.762zM39.726 24.884v-0.762h-0.762v0.762h0.762zM39.726 25.661h-0.762v0.762h0.762v-0.762zM41.013 25.661h0.762v-0.762h-0.762v0.762zM41.013 25.425h-1.288v1.524h1.288v-1.524zM38.964 26.187v0.869h1.524v-0.869h-1.524zM39.726 27.817h1.509v-1.524h-1.509v1.524zM40.472 27.055v0.533h1.524v-0.533h-1.524zM41.234 26.827h-2.179v1.524h2.179v-1.524zM39.817 27.589v-3.246h-1.524v3.253h1.524zM39.055 25.105h2.171v-1.524h-2.171v1.524zM40.465 24.343v0.541h1.524v-0.533h-1.524zM41.227 24.122h-1.501v1.524h1.501v-1.524zM38.964 24.884v0.777h1.524v-0.777h-1.524zM39.726 26.423h1.288v-1.524h-1.288v1.524zM40.251 25.661v0.526h1.524v-0.526h-1.524zM44.122 24.884v0.762h0.762v-0.762h-0.762zM43.124 24.884v-0.762h-0.762v0.762h0.762zM43.124 27.596v0.762h0.762v-0.762h-0.762zM42.453 27.596h-0.762v0.762h0.762v-0.762zM42.453 24.884h0.762v-0.762h-0.762v0.762zM41.47 24.884h-0.762v0.762h0.762v-0.762zM41.47 24.35v-0.762h-0.762v0.762h0.762zM44.122 24.35h0.762v-0.762h-0.762v0.762zM44.122 24.122h-0.998v1.524h0.99v-1.524zM42.362 24.884v2.712h1.524v-2.712h-1.524zM43.124 26.834h-0.67v1.524h0.67v-1.524zM43.215 27.596v-2.712h-1.524v2.712h1.524zM42.453 24.122h-0.983v1.524h0.983v-1.524zM42.232 24.884v-0.533h-1.524v0.533h1.524zM41.47 25.112h2.651v-1.524h-2.651v1.524zM43.36 24.35v0.533h1.524v-0.533h-1.524zM46.461 26.179v0.762h0.762v-0.762h-0.762zM45.166 26.179v-0.762h-0.762v0.762h0.762zM45.166 27.055h-0.762v0.762h0.762v-0.762zM46.682 27.055h0.762v-0.762h-0.762v0.762zM46.682 27.589v0.762h0.762v-0.762h-0.762zM44.503 27.589h-0.762v0.762h0.762v-0.762zM44.503 24.343v-0.762h-0.762v0.762h0.762zM46.674 24.343h0.762v-0.762h-0.762v0.762zM46.674 24.884v0.762h0.762v-0.762h-0.762zM45.173 24.884v-0.762h-0.762v0.762h0.762zM45.173 25.661h-0.762v0.762h0.762v-0.762zM46.461 25.661h0.762v-0.762h-0.762v0.762zM46.461 25.425h-1.295v1.524h1.295v-1.524zM44.404 26.187v0.869h1.524v-0.869h-1.524zM45.166 27.817h1.516v-1.524h-1.509v1.524zM45.92 27.055v0.533h1.524v-0.533h-1.524zM46.682 26.827h-2.187v1.524h2.179v-1.524zM45.265 27.589v-3.246h-1.524v3.253h1.524zM44.503 25.105h2.171v-1.524h-2.171v1.524zM45.912 24.343v0.541h1.524v-0.533h-1.524zM46.674 24.122h-1.493v1.524h1.501v-1.524zM44.411 24.884v0.777h1.524v-0.777h-1.524zM45.173 26.423h1.288v-1.524h-1.295v1.524zM45.699 25.661v0.526h1.524v-0.526h-1.524zM48.274 26.408l0.686-0.35-0.213-0.411h-0.472v0.762zM47.741 26.408v-0.762h-0.762v0.762h0.762zM47.741 27.596v0.762h0.762v-0.762h-0.762zM47.070 27.596h-0.762v0.762h0.762v-0.762zM47.070 24.343v-0.762h-0.762v0.762h0.762zM49.341 25.882v0zM48.899 26.232l-0.305-0.686-0.747 0.328 0.381 0.716 0.67-0.358zM49.608 27.566h0.762v-0.19l-0.091-0.168-0.67 0.358zM49.608 27.596v0.762h0.762v-0.762h-0.762zM48.884 27.596l-0.678 0.343 0.213 0.419h0.465v-0.762zM47.741 25.859h-0.762v0.762h0.762v-0.762zM48.678 25.737v0zM48.678 25.021v0zM47.741 24.884v-0.762h-0.762v0.762h0.762zM48.274 25.646h-0.533v1.524h0.533v-1.524zM46.979 26.408v1.189h1.524v-1.189h-1.524zM47.741 26.834h-0.67v1.524h0.67v-1.524zM47.832 27.596v-3.253h-1.524v3.253h1.524zM47.070 25.105h1.211v-1.524h-1.211v1.524zM48.282 25.105c0.282 0 0.381 0.061 0.404 0.084l0.968-1.173c-0.353-0.272-0.801-0.436-1.287-0.436-0.030 0-0.059 0.001-0.088 0.002l0.004-0v1.524zM48.686 25.189c0.015 0.008 0.015 0.015 0.015 0.023 0.008 0.008 0.023 0.046 0.023 0.114h1.524c0-0.503-0.183-0.975-0.594-1.31l-0.968 1.173zM48.724 25.326c-0 0.041-0.006 0.080-0.016 0.117l0.001-0.003-0.008 0.023 1.272 0.838c0.198-0.305 0.274-0.64 0.274-0.975h-1.524zM48.701 25.47l-0.023 0.015c-0.026 0.021-0.057 0.039-0.089 0.052l-0.003 0.001 0.625 1.387c0.305-0.13 0.571-0.335 0.762-0.632l-1.272-0.823zM48.229 26.59l0.701 1.326 1.356-0.716-0.701-1.333-1.349 0.716zM48.838 27.566v0.030h1.524v-0.030h-1.524zM49.6 26.834h-0.716v1.524h0.724v-1.524zM49.562 27.246l-0.61-1.189-1.356 0.693 0.61 1.189 1.356-0.686zM47.741 26.621h0.541v-1.524h-0.533v1.524zM48.282 26.621c0.297 0 0.632-0.076 0.914-0.328l-1.036-1.12c0.032-0.030 0.070-0.053 0.112-0.068l0.002-0.001h0.008v1.524zM49.196 26.293c0.274-0.259 0.381-0.594 0.381-0.914h-1.524l0.015-0.076c0.020-0.048 0.048-0.088 0.084-0.122l0-0 1.044 1.112zM49.577 25.379c0-0.305-0.091-0.64-0.358-0.899l-1.074 1.074c-0.033-0.034-0.059-0.074-0.075-0.12l-0.001-0.002-0.015-0.053h1.524zM49.227 24.488c-0.233-0.227-0.552-0.366-0.903-0.366-0.015 0-0.029 0-0.044 0.001l0.002-0v1.524c0.030 0 0.023 0 0 0-0.057-0.020-0.105-0.051-0.145-0.091l-0-0 1.090-1.067zM48.282 24.122h-0.533v1.524h0.533v-1.524zM46.987 24.884v0.975h1.524v-0.975h-1.524zM51.543 26.453v0zM51.063 26.24v0zM50.514 26.011v0zM50.103 24.739v0zM50.53 24.411v0zM51.779 24.427l-0.328 0.686h0.008l0.32-0.686zM52.198 24.785v0zM52.35 25.303v0.762h0.762v-0.762h-0.762zM51.68 25.303h-0.762v0.762h0.762v-0.762zM51.543 24.96l-0.51 0.564 0.008 0.008 0.503-0.571zM50.766 24.937v0zM50.789 25.47l-0.427 0.64 0.427-0.632zM51.261 25.676v0zM52.030 27.398v0zM50.491 27.505l-0.312 0.686 0.305-0.693zM50.019 27.124v0zM49.859 26.575v-0.762h-0.762v0.762h0.762zM50.53 26.575h0.762v-0.762h-0.762v0.762zM51.543 27.017v0zM52.442 26.743c0-0.335-0.13-0.67-0.442-0.899l-0.914 1.219c-0.055-0.044-0.099-0.1-0.128-0.165l-0.001-0.003c-0.022-0.044-0.036-0.097-0.038-0.152l-0-0.001h1.524zM52.008 25.844c-0.198-0.152-0.472-0.259-0.709-0.335l-0.465 1.448 0.213 0.084 0.030 0.015 0.93-1.211zM51.299 25.516c-0.213-0.076-0.343-0.13-0.427-0.175l-0.724 1.341c0.19 0.107 0.427 0.198 0.678 0.282l0.472-1.448zM50.872 25.341c-0.060-0.025-0.111-0.061-0.152-0.106l-0-0v-0.023h-1.524c0 0.686 0.411 1.181 0.952 1.47l0.724-1.341zM50.72 25.211v-0.023l-1.234-0.891c-0.198 0.267-0.29 0.579-0.29 0.914h1.524zM50.72 25.181c0.008 0 0.030-0.030 0.107-0.061l-0.587-1.41c-0.297 0.122-0.556 0.312-0.754 0.587l1.234 0.884zM50.827 25.12c0.076-0.038 0.183-0.061 0.328-0.061v-1.524c-0.312 0-0.625 0.053-0.914 0.175l0.587 1.41zM51.154 25.059c0.137 0 0.229 0.030 0.305 0.061l0.64-1.387c-0.269-0.125-0.583-0.198-0.915-0.198-0.011 0-0.021 0-0.032 0l0.002-0v1.524zM51.459 25.12c0.061 0.030 0.084 0.053 0.099 0.076l1.28-0.83c-0.184-0.276-0.437-0.493-0.736-0.628l-0.011-0.004-0.632 1.387zM51.566 25.196c0.008 0.023 0.023 0.053 0.023 0.107h1.524c0-0.335-0.091-0.655-0.274-0.945l-1.272 0.838zM52.35 24.541h-0.67v1.524h0.67v-1.524zM52.442 25.303c0-0.32-0.107-0.663-0.404-0.914l-0.99 1.135c-0.042-0.037-0.076-0.083-0.098-0.135l-0.001-0.002c-0.013-0.027-0.021-0.058-0.023-0.091l-0-0.001h1.524zM52.046 24.389c-0.274-0.244-0.61-0.32-0.899-0.32v1.524c0.023 0 0.015 0 0 0-0.045-0.015-0.083-0.038-0.114-0.069l0 0 1.013-1.143zM51.147 24.069c-0.267 0-0.579 0.053-0.846 0.267l0.93 1.204c-0.028 0.023-0.061 0.041-0.097 0.053l-0.002 0.001h0.015v-1.524zM50.309 24.328c-0.282 0.213-0.442 0.533-0.442 0.884h1.524c0 0.046-0.008 0.114-0.046 0.183-0.029 0.061-0.070 0.112-0.121 0.152l-0.001 0.001-0.914-1.219zM49.867 25.211c0 0.411 0.229 0.716 0.495 0.899l0.853-1.265c0.044 0.033 0.079 0.073 0.106 0.12l0.001 0.002c0.046 0.076 0.069 0.16 0.069 0.244h-1.524zM50.362 26.11c0.198 0.13 0.434 0.229 0.678 0.297l0.434-1.463c-0.102-0.027-0.19-0.064-0.273-0.11l0.006 0.003-0.838 1.272zM51.040 26.408c0.328 0.099 0.472 0.198 0.518 0.244l1.067-1.097c-0.305-0.29-0.716-0.48-1.143-0.61l-0.442 1.463zM51.558 26.651l0.023 0.030 0.008 0.053h1.524c0-0.45-0.16-0.861-0.488-1.181l-1.067 1.097zM51.589 26.735v0.046l-0.015 0.008 0.914 1.219c0.419-0.312 0.625-0.762 0.625-1.272h-1.524zM51.573 26.789c-0.038 0.030-0.152 0.091-0.404 0.091v1.524c0.472 0 0.937-0.107 1.318-0.396l-0.914-1.219zM51.17 26.88c-0.152 0-0.274-0.030-0.373-0.076l-0.61 1.394c0.305 0.137 0.64 0.206 0.99 0.206v-1.524zM50.804 26.804c-0.061-0.022-0.113-0.059-0.152-0.106l-0-0.001-1.265 0.861c0.206 0.29 0.48 0.503 0.792 0.64l0.625-1.394zM50.651 26.697c-0.015-0.023-0.030-0.053-0.030-0.122h-1.524c0 0.343 0.091 0.686 0.29 0.975l1.265-0.853zM49.859 27.337h0.67v-1.524h-0.67v1.524zM49.768 26.575c0 0.335 0.107 0.709 0.434 0.99 0.305 0.244 0.67 0.305 0.968 0.305v-1.524h-0.076s0.038 0 0.084 0.046c0.046 0.038 0.076 0.084 0.099 0.13l0.015 0.053h-1.524zM51.17 27.87c0.251 0 0.556-0.046 0.823-0.236l-0.891-1.242 0.091-0.046h-0.023v1.524zM51.992 27.627c0.305-0.213 0.45-0.533 0.45-0.884h-1.524c0.003-0.14 0.071-0.263 0.174-0.342l0.001-0.001 0.899 1.227z"></path>
</symbol>
<symbol id="icon-brand" viewBox="0 0 43 32">
<path d="M3.241 26.376c0.163 0.184 0.252 0.422 0.245 0.66 0.014 0.157-0.020 0.313-0.088 0.463-0.068 0.143-0.163 0.272-0.293 0.381-0.327 0.218-0.722 0.327-1.13 0.306h-1.974v-4.221h1.934c0.032-0.002 0.069-0.003 0.106-0.003 0.361 0 0.696 0.108 0.976 0.293l-0.007-0.004c0.123 0.095 0.225 0.218 0.286 0.354 0.068 0.136 0.095 0.286 0.088 0.436 0.014 0.232-0.068 0.456-0.225 0.64-0.15 0.17-0.354 0.286-0.586 0.334 0.259 0.041 0.497 0.17 0.667 0.361zM0.926 25.736h0.817c0.191 0.014 0.381-0.034 0.531-0.136 0.068-0.054 0.109-0.116 0.136-0.191 0.034-0.068 0.048-0.15 0.041-0.225 0.001-0.013 0.002-0.028 0.002-0.043 0-0.066-0.013-0.128-0.037-0.185l0.001 0.003c-0.033-0.073-0.079-0.134-0.135-0.183l-0.001-0.001c-0.134-0.091-0.299-0.146-0.476-0.146-0.024 0-0.048 0.001-0.071 0.003l0.003-0h-0.817v1.103zM2.356 27.357c0.068-0.054 0.116-0.123 0.15-0.197 0.034-0.068 0.048-0.157 0.048-0.232 0-0.008 0.001-0.017 0.001-0.026 0-0.077-0.018-0.15-0.050-0.215l0.001 0.003c-0.037-0.079-0.090-0.145-0.155-0.197l-0.001-0.001c-0.142-0.095-0.316-0.151-0.503-0.151-0.019 0-0.038 0.001-0.058 0.002l0.003-0h-0.872v1.157h0.885c0.191 0.014 0.388-0.041 0.545-0.15zM7.197 28.187l-1.069-1.648h-0.409v1.648h-0.933v-4.221h1.757c0.038-0.003 0.082-0.004 0.126-0.004 0.414 0 0.797 0.137 1.104 0.369l-0.005-0.003c0.259 0.233 0.421 0.569 0.421 0.943 0 0.305-0.107 0.584-0.287 0.802l0.002-0.002c-0.225 0.232-0.524 0.381-0.844 0.429l1.144 1.689h-1.008zM5.719 25.961h0.763c0.524 0 0.79-0.204 0.79-0.633 0-0.008 0.001-0.018 0.001-0.027 0-0.084-0.018-0.163-0.050-0.235l0.001 0.004c-0.036-0.085-0.086-0.158-0.149-0.218l-0-0c-0.144-0.108-0.325-0.173-0.521-0.173-0.025 0-0.050 0.001-0.074 0.003l0.003-0h-0.776l0.007 1.28zM12.262 27.336h-1.845l-0.327 0.851h-0.974l1.702-4.174h1.049l1.688 4.174h-0.974l-0.327-0.851zM12.017 26.696l-0.681-1.777-0.674 1.777h1.355zM18.601 28.187h-0.919l-2.063-2.866v2.86h-0.912v-4.208h0.919l2.063 2.88v-2.88h0.919v4.214zM23.85 27.173c-0.191 0.32-0.477 0.579-0.831 0.749-0.402 0.184-0.844 0.272-1.294 0.266h-1.634v-4.221h1.634c0.449-0.007 0.892 0.082 1.294 0.266 0.354 0.163 0.64 0.415 0.831 0.735 0.179 0.318 0.284 0.698 0.284 1.103s-0.105 0.785-0.29 1.114l0.006-0.012zM22.802 27.077c0.259-0.279 0.409-0.64 0.409-1.008s-0.15-0.729-0.409-1.008c-0.284-0.223-0.647-0.358-1.042-0.358-0.041 0-0.081 0.001-0.121 0.004l0.005-0h-0.633v2.723h0.64c0.415 0.027 0.831-0.102 1.151-0.354zM12.841 0.524s11.867 4.099 11.615 10.043v10.043s-11.86-4.106-11.615-10.043v-10.043zM35.037 18.26c2.152-1.365 4.718-2.278 7.474-2.541l0.069-0.005v-3.146c-3.122 1.095-5.703 3.078-7.512 5.644l-0.032 0.048z"></path>
<path d="M33.688 19.2c1.949-3.435 5.056-6.021 8.781-7.253l0.111-0.032v-9.076s-16.912 5.862-16.552 14.318v14.298s0.749-0.259 1.94-0.749c0-0.463 0-0.919 0.054-1.382 0.422-4.146 2.536-7.728 5.63-10.092l0.035-0.026z"></path>
<path  d="M32.082 24.517c0.089-0.987 0.286-1.974 0.592-2.928-2.13 2.263-3.474 5.288-3.581 8.626l-0.001 0.021c0.96-0.429 2.077-0.953 3.254-1.573-0.3-1.362-0.388-2.757-0.266-4.146zM32.749 24.572c-0.109 1.253-0.034 2.519 0.211 3.745 4.623-2.526 9.811-6.434 9.614-11.166v-0.409c-3.393 0.338-6.416 1.703-8.81 3.775l0.020-0.017c-0.529 1.191-0.895 2.572-1.024 4.021l-0.004 0.050z"></path>
</symbol>
<symbol id="icon-company-tagline" viewBox="0 0 67 32">
<path  d="M33.721 15.218c-0.269-0.349-0.431-0.792-0.431-1.274 0-0.047 0.002-0.094 0.005-0.141l-0 0.006v-2.048c0-0.633 0.142-1.109 0.427-1.436s0.782-0.491 1.472-0.484c0.647 0 1.116 0.142 1.387 0.412 0.299 0.356 0.441 0.789 0.412 1.23v0.476h-1.166v-0.484c0-0.164-0.007-0.32-0.036-0.476-0.019-0.115-0.078-0.214-0.163-0.284l-0.001-0.001c-0.106-0.072-0.237-0.116-0.378-0.116-0.017 0-0.034 0.001-0.051 0.002l0.002-0c-0.013-0.001-0.027-0.001-0.042-0.001-0.149 0-0.287 0.046-0.401 0.124l0.002-0.002c-0.099 0.077-0.17 0.185-0.198 0.309l-0.001 0.004c-0.028 0.164-0.043 0.334-0.043 0.498v2.489c-0.021 0.249 0.036 0.484 0.149 0.704 0.057 0.071 0.142 0.135 0.235 0.171 0.066 0.025 0.143 0.040 0.223 0.040 0.027 0 0.053-0.002 0.079-0.005l-0.003 0c0.017 0.002 0.036 0.002 0.055 0.002 0.133 0 0.257-0.041 0.36-0.11l-0.002 0.001c0.092-0.075 0.157-0.182 0.177-0.303l0-0.003c0.021-0.164 0.036-0.334 0.036-0.498v-0.512h1.166v0.462c0.028 0.455-0.114 0.91-0.405 1.287-0.27 0.306-0.725 0.455-1.394 0.455-0.676 0-1.18-0.164-1.472-0.498zM38.585 15.246c-0.299-0.32-0.441-0.782-0.441-1.401v-2.155c0-0.612 0.142-1.067 0.441-1.387 0.292-0.313 0.782-0.469 1.479-0.462 0.683 0 1.173 0.149 1.465 0.462 0.299 0.313 0.448 0.775 0.448 1.387v2.155c0 0.612-0.149 1.074-0.448 1.394-0.299 0.327-0.782 0.484-1.465 0.484s-1.188-0.164-1.479-0.476zM40.604 14.727c0.107-0.199 0.156-0.42 0.142-0.64v-2.638c0.014-0.213-0.036-0.427-0.142-0.626-0.061-0.075-0.14-0.134-0.231-0.169l-0.004-0.001c-0.067-0.026-0.144-0.041-0.225-0.041-0.029 0-0.057 0.002-0.084 0.005l0.003-0c-0.025-0.004-0.055-0.005-0.085-0.005-0.082 0-0.16 0.015-0.233 0.043l0.005-0.002c-0.097 0.036-0.179 0.095-0.241 0.17l-0.001 0.001c-0.1 0.192-0.149 0.412-0.142 0.626v2.652c-0.007 0.213 0.036 0.441 0.142 0.64 0.145 0.131 0.339 0.211 0.551 0.211 0.106 0 0.208-0.020 0.301-0.057l-0.006 0.002c0.1-0.036 0.178-0.092 0.249-0.156v-0.014zM43.378 9.899h1.259l0.946 3.982 0.967-3.982h1.223l0.121 5.746h-0.903l-0.1-3.989-0.924 3.989h-0.74l-0.967-4.004-0.085 4.004h-0.917l0.114-5.746zM49.301 9.899h1.956c1.131 0 1.692 0.548 1.692 1.636 0 1.038-0.59 1.564-1.778 1.564h-0.668v2.546h-1.209l0.007-5.746zM50.972 12.359c0.121 0.007 0.242 0 0.356-0.028 0.114-0.036 0.22-0.085 0.313-0.156 0.135-0.192 0.199-0.427 0.171-0.647 0-0.178-0.014-0.356-0.057-0.526-0.020-0.061-0.052-0.113-0.093-0.157l0 0c-0.042-0.046-0.091-0.084-0.147-0.112l-0.003-0.001c-0.171-0.071-0.356-0.1-0.54-0.092h-0.469v1.721h0.469zM54.684 9.899h1.301l1.337 5.746h-1.131l-0.263-1.323h-1.159l-0.27 1.323h-1.138l1.33-5.746zM55.801 13.653l-0.455-2.411-0.448 2.418h0.903zM58.396 9.899h0.846l1.614 3.278v-3.271h1.010v5.739h-0.804l-1.628-3.413v3.413h-1.038v-5.746zM64.213 13.454l-1.351-3.548h1.138l0.818 2.276 0.768-2.276h1.109l-1.323 3.556v2.183h-1.166v-2.19zM35.591 18.155v0.299h-0.988v2.34h-0.412v-2.34h-0.996v-0.299h2.396zM38.684 20.793h-0.327c-0.032 0-0.062-0.011-0.086-0.029l0 0c-0.024-0.013-0.044-0.033-0.057-0.056l-0-0.001-0.284-0.626h-1.365l-0.284 0.626c-0.009 0.028-0.023 0.052-0.043 0.071v0c-0.022 0.014-0.048 0.022-0.076 0.022-0.006 0-0.011-0-0.017-0.001l0.001 0h-0.32l1.209-2.631h0.427l1.216 2.624zM36.679 19.812h1.138l-0.484-1.067c-0.030-0.070-0.059-0.155-0.082-0.243l-0.003-0.013-0.050 0.142-0.043 0.114-0.476 1.067zM40.761 20.53h0.228c0.135-0.007 0.261-0.033 0.379-0.074l-0.010 0.003 0.156-0.071v-0.59h-0.484c-0.001 0-0.002 0-0.002 0-0.023 0-0.045-0.008-0.062-0.022l0 0c-0.006-0.006-0.011-0.013-0.014-0.021l-0-0-0.007-0.028v-0.199h0.939v1.010c-0.232 0.144-0.508 0.238-0.804 0.263l-0.007 0c-0.121 0.014-0.235 0.021-0.356 0.021-0.213 0-0.412-0.036-0.612-0.1-0.186-0.065-0.347-0.16-0.485-0.279l0.002 0.002c-0.126-0.114-0.229-0.251-0.302-0.405l-0.003-0.008c-0.078-0.178-0.114-0.363-0.114-0.548-0.001-0.013-0.001-0.029-0.001-0.045 0-0.369 0.165-0.699 0.426-0.921l0.002-0.001c0.128-0.121 0.299-0.213 0.476-0.277 0.189-0.064 0.407-0.101 0.633-0.101 0.123 0 0.244 0.011 0.361 0.032l-0.012-0.002c0.199 0.029 0.379 0.089 0.542 0.175l-0.009-0.004c0.071 0.036 0.142 0.085 0.213 0.135l-0.121 0.164c-0.011 0.016-0.025 0.028-0.042 0.035l-0.001 0c-0.014 0.008-0.031 0.013-0.049 0.014l-0 0c-0.026-0.001-0.051-0.009-0.072-0.022l0.001 0c-0.043-0.014-0.078-0.036-0.121-0.064-0.192-0.094-0.418-0.15-0.657-0.15-0.012 0-0.023 0-0.035 0l0.002-0c-0.007-0-0.016-0-0.025-0-0.159 0-0.312 0.026-0.455 0.074l0.010-0.003c-0.142 0.050-0.256 0.121-0.356 0.213-0.096 0.088-0.173 0.194-0.225 0.314l-0.002 0.006c-0.107 0.284-0.107 0.597 0 0.882 0.168 0.356 0.523 0.599 0.936 0.599 0.046 0 0.091-0.003 0.136-0.009l-0.005 0.001zM44.615 20.487h1.316v0.306h-1.721v-2.631h0.412l-0.007 2.325zM47.303 20.793h-0.412v-2.631h0.412v2.631zM48.839 18.169c0.028 0.014 0.050 0.028 0.064 0.050l1.764 1.984v-2.055h0.356v2.645h-0.199c-0.036 0-0.064 0-0.092-0.014-0.025-0.013-0.046-0.030-0.064-0.050l-0-0-1.764-1.991v2.055h-0.348v-2.631h0.284zM54.073 18.155v0.284h-1.465v0.875h1.188v0.284h-1.188v0.896h1.465v0.284h-1.892v-2.624h1.892zM10.78 1.892l18.347 4.494v15.758l-18.347-4.494v-15.758zM9.607 0.54v17.877l20.693 5.077v-17.877l-20.7-5.070z"></path>
<path d="M20.693 31.787l-20.693-5.092v-17.856l20.693 5.077v17.863z"></path>
<path d="M9.948 1.685l18.105 4.444-7.701 6.642-18.105-4.437 7.701-6.649zM9.607 0.548l-9.607 8.292 20.693 5.077 9.6-8.299-20.693-5.070zM21.86 30.777l8.441-7.289-8.441-2.069v9.358z"></path>
</symbol>
<symbol id="icon-astronaut" viewBox="0 0 32 32">
<path  d="M31.973 4.526c-0.059-0.192-0.229-0.334-0.43-0.366l-1.911-0.274-0.855-1.737c-0.178-0.361-0.777-0.361-0.955 0l-0.85 1.737-1.911 0.274c-0.262 0.038-0.46 0.261-0.46 0.53 0 0.151 0.063 0.287 0.163 0.385l0 0 1.385 1.344-0.325 1.902c-0.005 0.026-0.007 0.056-0.007 0.087 0 0.295 0.239 0.535 0.535 0.535 0.089 0 0.174-0.022 0.248-0.061l-0.003 0.001 1.71-0.896 1.705 0.896c0.072 0.039 0.158 0.062 0.25 0.062 0.295 0 0.535-0.239 0.535-0.535 0-0.032-0.003-0.063-0.008-0.093l0 0.003-0.329-1.902 1.385-1.349c0.146-0.137 0.197-0.352 0.137-0.549zM29.513 5.851c-0.128 0.123-0.183 0.297-0.155 0.471l0.192 1.115-1.001-0.526c-0.072-0.039-0.158-0.062-0.249-0.062s-0.177 0.023-0.252 0.064l0.003-0.001-1.001 0.526 0.192-1.115c0.032-0.174-0.027-0.347-0.151-0.471l-0.814-0.791 1.12-0.16c0.174-0.027 0.325-0.137 0.402-0.293l0.503-1.015 0.498 1.015c0.078 0.155 0.229 0.265 0.402 0.293l1.12 0.16-0.809 0.791zM26.135 20.526h-1.070v1.065h1.070v-1.070zM26.135 22.656h-1.070v1.065h1.070v-1.065zM27.2 21.591h-1.065v1.065h1.065v-1.065zM25.065 21.591h-1.065v1.065h1.065v-1.065zM22.4 26.391h-1.065v1.065h1.065v-1.065zM22.4 28.526h-1.065v1.065h1.065v-1.070zM23.465 27.456h-1.065v1.065h1.065v-1.065zM21.335 27.456h-1.070v1.065h1.070v-1.065zM16 24.256h-1.065v1.065h1.065v-1.065zM16 26.391h-1.065v1.065h1.065v-1.065zM17.065 25.326h-1.065v1.065h1.065v-1.070zM14.935 25.326h-1.070v1.065h1.070v-1.070zM5.865 6.126h-1.065v1.065h1.065v-1.070zM5.865 8.256h-1.065v1.065h1.065v-1.065zM6.935 7.191h-1.070v1.065h1.070v-1.065zM4.8 7.191h-1.065v1.065h1.065v-1.065z"></path>
<path  d="M24.713 14.158c-0.28-0.376-0.699-0.636-1.179-0.703l-0.009-0.001c-0.076-0.012-0.164-0.018-0.253-0.018-0.411 0-0.789 0.139-1.090 0.373l0.004-0.003-1.248 0.96-1.902 1.417-1.358-0.539c2.423-1.088 4.114-3.506 4.114-6.322 0-3.822-3.122-6.93-6.962-6.93s-6.958 3.109-6.958 6.93c0 1.39 0.411 2.674 1.12 3.762l-2.77-0.027-0.023 0.005c-0.055 0-0.105 0.014-0.155 0.032l-0.037 0.014-0.023 0.005-3.232 1.6-1.893 0.91c-0.506 0.32-0.837 0.877-0.837 1.511 0 0.985 0.798 1.783 1.783 1.783 0.303 0 0.588-0.075 0.838-0.209l-0.010 0.005 1.385-0.736 2.263-1.17 1.358-0.009-6.779 6.757c-0.306 0.299-0.496 0.716-0.496 1.177s0.19 0.878 0.495 1.177l0 0c0.302 0.302 0.719 0.488 1.179 0.488s0.878-0.187 1.179-0.488v0l1.307-1.312 1.742-1.298 0.901 0.896-1.76 1.755-1.339 1.33c-0.307 0.299-0.498 0.717-0.498 1.179s0.191 0.88 0.498 1.179l0 0c0.302 0.302 0.719 0.488 1.179 0.488s0.878-0.187 1.179-0.488v0l3.483-3.47 1.015-1.006h-0.005l0.018-0.018 5.166-5.659 3.474 0.498c0.019 0.003 0.041 0.004 0.063 0.004 0.071 0 0.139-0.015 0.201-0.042l-0.003 0.001 0.050-0.023c0.018-0.009 0.041-0.014 0.059-0.027l3.214-2.13 0.027-0.032 0.041-0.023 1.271-1.193c0.347-0.326 0.562-0.788 0.562-1.3 0-0.401-0.132-0.771-0.355-1.068l0.003 0.005zM2.13 17.769c-0.109 0.071-0.243 0.113-0.386 0.113-0.396 0-0.716-0.321-0.716-0.716 0-0.252 0.13-0.474 0.327-0.602l0.003-0.002 1.317-0.631 0.315 0.923 0.133 0.389-0.992 0.526zM5.627 15.941l-1.55 0.8-0.256-0.741-0.183-0.535 2.030-1.006-0.041 1.486zM20.727 9.326c0 0.919-0.219 1.783-0.599 2.56l-4.183-1.897c-0.042-0.576-0.341-1.074-0.78-1.386l-0.006-0.004 1.463-4.859c2.377 0.754 4.105 2.971 4.105 5.586zM8.937 9.326c0.011-3.243 2.643-5.868 5.888-5.868 0.266 0 0.528 0.018 0.784 0.052l-0.030-0.003-1.435 4.754-0.055-0.005c0 0 0 0-0 0-1.032 0-1.869 0.834-1.874 1.865v0.001c0.012 1.026 0.847 1.852 1.874 1.852 0.687 0 1.287-0.369 1.614-0.92l0.005-0.009 3.858 1.755c-1.085 1.458-2.804 2.393-4.741 2.393-3.245 0-5.878-2.624-5.893-5.866v-0.001zM14.894 10.126c0 0.446-0.361 0.807-0.807 0.807s-0.807-0.361-0.807-0.807v0c0-0.439 0.366-0.8 0.809-0.8s0.805 0.361 0.805 0.8zM2.469 25.147c-0.233 0.233-0.617 0.229-0.855 0-0.109-0.108-0.177-0.257-0.177-0.423s0.068-0.315 0.177-0.423l0.96-0.96 0.855 0.85-0.965 0.951zM5.682 28.878c-0.233 0.238-0.617 0.238-0.855 0-0.108-0.108-0.174-0.256-0.174-0.421s0.067-0.313 0.174-0.421v0l0.96-0.96 0.855 0.846-0.96 0.96zM9.166 25.413l-1.769 1.76-0.85-0.85 1.765-1.751c0.041-0.046 0.064-0.091 0.091-0.137l0.023-0.046c0.018-0.037 0.023-0.082 0.027-0.123 0-0.027 0.014-0.046 0.014-0.073 0-0.037-0.014-0.073-0.018-0.105l-0.018-0.096c-0.023-0.050-0.055-0.091-0.091-0.137l-0.027-0.041-1.609-1.6c-0.014-0.018-0.037-0.023-0.055-0.037-0.032-0.023-0.059-0.046-0.091-0.059-0.026-0.012-0.056-0.023-0.088-0.031l-0.003-0.001c-0.029-0.010-0.063-0.018-0.098-0.023l-0.003-0c-0.032 0-0.064 0-0.096 0.009-0.037 0-0.069 0.009-0.105 0.018-0.032 0.009-0.064 0.027-0.091 0.046-0.023 0.009-0.046 0.014-0.064 0.027l-1.774 1.326-0.901-0.901 2.4-2.386 4.361 4.293-0.928 0.914zM15.982 18.395h-0.046c-0.007-0-0.016-0.001-0.025-0.001-0.137 0-0.262 0.052-0.355 0.138l0-0-0.041 0.032-4.699 5.143-4.325-4.251 2.834-2.821c0.098-0.097 0.158-0.231 0.158-0.379 0-0.295-0.239-0.535-0.535-0.535-0.002 0-0.005 0-0.007 0h0l-2.217 0.014 0.027-1.609 3.104 0.027c1.263 1.296 3.026 2.099 4.977 2.099 0.455 0 0.899-0.044 1.33-0.127l-0.044 0.007c0.037 0.032 0.078 0.064 0.128 0.087l2.409 0.96 0.151 0.759 0.183 0.882-3.008-0.425zM20.023 18.574l-0.311-1.559 1.445-1.079 0.379 0.503 0.567 0.75-2.080 1.385zM23.781 15.739l-0.841 0.786-0.928-1.234 0.827-0.64c0.122-0.093 0.276-0.149 0.443-0.149 0.037 0 0.074 0.003 0.11 0.008l-0.004-0.001c0.352 0.050 0.62 0.349 0.62 0.711 0 0.206-0.087 0.392-0.226 0.523l-0 0z"></path>
<path  d="M13.6 18.546l-2.139-2.135c-0.097-0.096-0.23-0.156-0.377-0.156s-0.28 0.059-0.377 0.156l0-0-2.144 2.135c-0.096 0.097-0.156 0.23-0.156 0.377s0.059 0.28 0.156 0.377l-0-0 2.144 2.135c0.097 0.096 0.23 0.156 0.377 0.156s0.28-0.059 0.377-0.156l-0 0 2.139-2.135c0.096-0.097 0.156-0.23 0.156-0.377s-0.059-0.28-0.156-0.377l0 0zM11.086 20.302l-1.394-1.376 1.385-1.381 1.39 1.381-1.39 1.381zM17.166 5.074l-0.261 1.033c0.073 0.018 1.737 0.453 1.737 2.149h1.070c0-2.016-1.669-2.967-2.546-3.186zM19.712 9.326h-1.070v1.065h1.070v-1.070z"></path>
</symbol>
<symbol id="icon-diagram" viewBox="0 0 32 32">
<path d="M14.926 14.967h1.065v4.795h-1.065v-4.8zM19.191 17.097h1.065v2.665h-1.065v-2.665zM10.661 18.697h1.065v1.065h-1.065v-1.065zM7.461 18.162h1.070v1.6h-1.070v-1.6z"></path>
<path d="M1.6 28.293h25.586c0.884 0 1.6-0.716 1.6-1.6v0-2.135c0-0.884-0.716-1.6-1.6-1.6v0h-0.535v-13.285l3.031-2.871c0.207 0.104 0.45 0.164 0.708 0.164 0.889 0 1.609-0.72 1.609-1.609s-0.72-1.609-1.609-1.609c-0.889 0-1.609 0.72-1.609 1.609 0 0.247 0.056 0.482 0.156 0.691l-0.004-0.010-2.281 2.162v-1.23c0-0.884-0.716-1.6-1.6-1.6v0h-21.321c-0.884 0-1.6 0.716-1.6 1.6v0 15.995h-0.53c-0.884 0-1.6 0.716-1.6 1.6v0 2.13c0 0.884 0.716 1.6 1.6 1.6v0zM30.386 4.837c0.015-0.001 0.032-0.002 0.049-0.002 0.295 0 0.535 0.239 0.535 0.535s-0.239 0.535-0.535 0.535c-0.017 0-0.035-0.001-0.052-0.002l0.002 0c-0.273-0.026-0.485-0.255-0.485-0.533s0.212-0.506 0.483-0.532l0.002-0zM3.2 6.967c0-0.293 0.238-0.53 0.53-0.53h21.321c0.297 0 0.535 0.238 0.535 0.53v2.24l-1.065 1.015v-2.185c0-0.297-0.238-0.535-0.535-0.535h-19.186c-0.293 0-0.53 0.238-0.53 0.535v13.326c0 0.293 0.238 0.53 0.53 0.53h19.191c0.297 0 0.535-0.238 0.535-0.53v-9.673l1.065-1.010v12.283h-22.391v-15.995zM8 13.897c-0.004-0-0.009-0-0.013-0-0.884 0-1.6 0.716-1.6 1.6s0.716 1.6 1.6 1.6c0.434 0 0.827-0.173 1.115-0.453l-0 0 1.856 0.933c0.215 0.105 0.475 0.055 0.635-0.123l3.936-4.434 3.872 2.903c0.21 0.155 0.503 0.137 0.686-0.037l3.369-3.191v8.137h-18.126v-12.27h18.126v2.661l-3.771 3.57-3.904-2.926c-0.088-0.067-0.2-0.107-0.322-0.107-0.159 0-0.302 0.070-0.4 0.18l-0 0.001-3.991 4.494-1.495-0.75c0.014-0.064 0.018-0.128 0.023-0.192 0-0.884-0.716-1.6-1.6-1.6v0zM8.53 15.497c0 0.295-0.239 0.535-0.535 0.535s-0.535-0.239-0.535-0.535v0c0-0.295 0.239-0.535 0.535-0.535s0.535 0.239 0.535 0.535v0zM11.73 24.027h5.321v0.53c0 0.297-0.238 0.535-0.53 0.535h-4.265c-0.293 0-0.535-0.238-0.535-0.535v-0.53zM1.061 24.558c0-0.293 0.238-0.53 0.535-0.53h9.061v0.53c0 0.884 0.716 1.6 1.6 1.6v0h4.265c0.884 0 1.6-0.716 1.6-1.6v0-0.53h9.061c0.293 0 0.53 0.238 0.53 0.53v2.135c0 0.293-0.238 0.53-0.53 0.53h-25.582c-0.297 0-0.535-0.238-0.535-0.53v-2.135z"></path>
</symbol>
<symbol id="icon-clock" viewBox="0 0 32 32">
<path d="M31.296 15.301c-0.001-8.452-6.853-15.303-15.305-15.303s-15.305 6.852-15.305 15.305c0 6.79 4.422 12.548 10.543 14.55l0.108 0.031c0.057 0.017 0.123 0.027 0.191 0.027 0.125 0 0.242-0.034 0.343-0.093l-0.003 0.002c0.137-0.082 0.233-0.206 0.283-0.357l3.863-12.251c1.048-0.009 1.895-0.861 1.895-1.911 0-1.055-0.856-1.911-1.911-1.911-0.3 0-0.584 0.069-0.836 0.192l0.011-0.005-5.102-5.106c-0.112-0.098-0.259-0.158-0.421-0.158-0.353 0-0.64 0.287-0.64 0.64 0 0.16 0.059 0.307 0.156 0.419l-0.001-0.001 5.106 5.111c-0.121 0.241-0.192 0.526-0.192 0.826 0 0.601 0.283 1.136 0.723 1.479l0.004 0.003-3.685 11.671c-5.408-2.035-9.186-7.165-9.186-13.177 0-7.756 6.287-14.043 14.043-14.043s14.043 6.287 14.043 14.043c0 5.688-3.381 10.586-8.243 12.793l-0.088 0.036-0.398-1.874c-0.066-0.289-0.32-0.502-0.625-0.502-0.162 0-0.31 0.060-0.423 0.159l0.001-0.001-3.84 3.429c-0.127 0.117-0.207 0.285-0.207 0.471 0 0.282 0.182 0.521 0.435 0.607l0.005 0.001 4.901 1.563c0.057 0.019 0.123 0.029 0.192 0.029 0.353 0 0.64-0.287 0.64-0.64 0-0.046-0.005-0.091-0.014-0.134l0.001 0.004-0.393-1.838c5.529-2.374 9.33-7.772 9.33-14.057 0-0.011 0-0.022-0-0.034v0.002zM15.991 14.661c0.353 0 0.64 0.287 0.64 0.64s-0.287 0.64-0.64 0.64v0c-0.353 0-0.64-0.287-0.64-0.64s0.287-0.64 0.64-0.64v0zM18.094 29.527l2.185-1.947 0.599 2.839-2.789-0.891z"></path>
<path d="M15.355 3.186v1.275c-0.001 0.016-0.002 0.035-0.002 0.054 0 0.353 0.287 0.64 0.64 0.64s0.64-0.287 0.64-0.64c0-0.019-0.001-0.038-0.002-0.056l0 0.002v-1.28c0-0.353-0.287-0.64-0.64-0.64s-0.64 0.287-0.64 0.64v0zM3.877 14.665c-0.329 0.029-0.586 0.303-0.586 0.638s0.257 0.609 0.584 0.638l0.002 0h1.275c0.353 0 0.64-0.287 0.64-0.64s-0.287-0.64-0.64-0.64h-1.28zM28.11 15.941c0.353 0 0.64-0.287 0.64-0.64s-0.287-0.64-0.64-0.64h-1.28c-0.353 0-0.64 0.287-0.64 0.64s0.287 0.64 0.64 0.64h1.28z"></path>
</symbol>
<symbol id="icon-antena" viewBox="0 0 32 32">
<path d="M30.775 22.098l-8.443-8.503 0.937-4.617c0.242 0.091 0.498 0.142 0.759 0.146h0.005c0.006 0 0.014 0 0.022 0 1.192 0 2.158-0.966 2.158-2.158s-0.966-2.158-2.158-2.158c-1.192 0-2.158 0.966-2.158 2.158 0 0.259 0.046 0.507 0.129 0.737l-0.005-0.015-4.955 0.603-8.091-8.133c-0.097-0.098-0.231-0.159-0.379-0.16h-0c-0.137 0-0.274 0.055-0.37 0.155l-1.513 1.504c-0.21 0.21-0.21 0.549 0 0.754l0.814 0.823c-1.143 2.062-1.816 4.522-1.816 7.14 0 4.106 1.656 7.824 4.336 10.525l-0.001-0.001c0.046 0.046 0.091 0.073 0.146 0.101-0.032 0.183-0.050 0.366-0.050 0.549v6.185h-6.4c0 0 0 0 0 0-1.473 0-2.667 1.193-2.67 2.665v1.065c0 0.297 0.238 0.535 0.535 0.535h24.535c0.293 0 0.53-0.238 0.53-0.535v-1.065c-0.003-1.471-1.194-2.663-2.665-2.665h-6.4v-2.743c0.915 0.2 1.966 0.315 3.043 0.315 2.581 0 5.008-0.659 7.123-1.817l-0.077 0.039 0.818 0.823c0.096 0.101 0.233 0.16 0.375 0.16 0.137 0 0.274-0.059 0.375-0.155l1.509-1.509c0.21-0.206 0.21-0.544 0-0.75zM23.278 6.235c0.193-0.192 0.458-0.311 0.752-0.311 0.588 0 1.065 0.477 1.065 1.065s-0.476 1.064-1.063 1.065h-0c-0.001 0-0.001 0-0.002 0-0.588 0-1.065-0.477-1.065-1.065 0-0.297 0.122-0.566 0.318-0.759l0-0zM22.025 9.737l-0.599 2.944-1.175-1.179 1.774-1.765zM21.417 8.837l-1.92 1.906-1.486-1.49 3.406-0.416zM24.005 28.8c0.884 0 1.6 0.716 1.6 1.6v0 0.535h-23.465v-0.535c0-0.884 0.716-1.6 1.6-1.6v0h20.261zM16.539 26.665v1.070h-5.339v-1.070h5.335zM11.2 25.6v-4.055c0-1.294 1.198-2.345 2.665-2.345 1.472 0 2.67 1.051 2.67 2.345v4.055h-5.335zM17.6 23.904v-2.359c0-1.879-1.673-3.41-3.735-3.41-0.018-0-0.040-0-0.062-0-1.351 0-2.537 0.705-3.211 1.768l-0.009 0.016c-2.359-2.481-3.809-5.845-3.809-9.548 0-2.314 0.567-4.496 1.569-6.415l-0.036 0.077 18.606 18.711c-1.822 0.946-3.978 1.501-6.264 1.501-1.080 0-2.132-0.124-3.141-0.358l0.093 0.018zM28.891 23.218l-0.754-0.754-20.302-20.425 0.754-0.75 21.061 21.179-0.759 0.75z"></path>
<path  d="M13.874 20.265c-0.001 0-0.003 0-0.005 0-0.884 0-1.6 0.716-1.6 1.6 0 0.882 0.714 1.597 1.595 1.6h0.005c0.001 0 0.001 0 0.002 0 0.884 0 1.6-0.716 1.6-1.6s-0.715-1.599-1.598-1.6h-0zM14.249 22.245c-0.097 0.096-0.23 0.155-0.377 0.155-0.295 0-0.535-0.239-0.535-0.535s0.238-0.533 0.532-0.535h0c0.294 0.001 0.533 0.24 0.533 0.535 0 0.148-0.060 0.283-0.158 0.379l-0 0z"></path>
</symbol>
</defs>
</svg>
